<svg xmlns="http://www.w3.org/2000/svg" xmlns:xlink="http://www.w3.org/1999/xlink" preserveAspectRatio="xMidYMid" width="72" height="80" viewBox="0 0 72 80">
  <defs>
    <style>
      .cls-1 {
        fill: #0b6fb9;
      }

      .cls-1, .cls-2 {
        fill-rule: evenodd;
      }

      .cls-2 {
        fill: #fff;
      }
    </style>
  </defs>
  <g>
    <path d="M71.332,26.525 C70.918,22.444 67.932,17.088 64.780,14.622 C64.780,14.622 59.969,10.966 53.997,7.395 C48.025,3.740 42.551,1.274 42.551,1.274 C40.726,0.424 38.320,-0.001 35.998,-0.001 C33.592,-0.001 31.187,0.424 29.445,1.274 C29.445,1.274 24.054,3.740 17.999,7.395 C12.027,11.051 7.216,14.622 7.216,14.622 C3.981,17.088 1.078,22.444 0.663,26.525 C0.663,26.525 -0.000,32.646 -0.000,39.957 C-0.000,47.184 0.663,53.390 0.663,53.390 C1.078,57.471 4.064,62.827 7.216,65.293 C7.216,65.293 12.027,68.948 17.999,72.604 C23.971,76.260 29.445,78.725 29.445,78.725 C31.270,79.576 33.675,80.001 35.998,80.001 C38.403,80.001 40.809,79.576 42.551,78.725 C42.551,78.725 47.942,76.260 53.997,72.604 C59.969,68.948 64.780,65.293 64.780,65.293 C68.015,62.827 70.918,57.471 71.332,53.390 C71.332,53.390 71.996,47.269 71.996,39.957 C71.996,32.731 71.332,26.525 71.332,26.525 Z" class="cls-1"/>
    <path d="M54.228,46.000 L54.228,39.819 L48.267,39.819 L48.267,46.000 L45.627,46.000 L45.627,32.057 L48.267,32.057 L48.267,37.378 L54.228,37.378 L54.228,32.057 L56.829,32.057 L56.829,46.000 L54.228,46.000 ZM39.509,39.819 L33.547,39.819 L33.547,46.000 L30.907,46.000 L30.907,32.057 L33.547,32.057 L33.547,37.378 L39.509,37.378 L39.509,32.057 L42.109,32.057 L42.109,46.000 L39.509,46.000 L39.509,39.819 ZM24.789,35.918 C22.949,39.319 20.928,42.819 18.888,46.000 L15.427,46.000 L15.427,32.057 L18.028,32.057 L18.028,42.579 C20.188,39.099 22.309,35.538 24.189,32.057 L27.370,32.057 L27.370,46.000 L24.789,46.000 L24.789,35.918 Z" class="cls-2"/>
  </g>
</svg>