<?xml version="1.0" encoding="UTF-8"?>
<!-- Generator: Adobe Illustrator 17.1.0, SVG Export Plug-In . SVG Version: 6.00 Build 0)  -->
<!DOCTYPE svg PUBLIC "-//W3C//DTD SVG 1.0//EN" "http://www.w3.org/TR/2001/REC-SVG-20010904/DTD/svg10.dtd">
<svg version="1.0" id="Layer_1" xmlns="http://www.w3.org/2000/svg" xmlns:xlink="http://www.w3.org/1999/xlink" x="0px" y="0px" viewBox="0 0 1024 1024" enable-background="new 0 0 1024 1024" xml:space="preserve">
<g>
	<g>
		<circle fill="none" cx="512" cy="512" r="512"/>
		<rect x="0" y="0" fill="none" width="1024" height="1024"/>
	</g>
	<path d="M559.2,25.1c33,0,57.9,16,75.4,18.5c41,5.7,50.9,18,59.2,25.5c6.9,6.2,9.2,18.5,11.5,23.4c2.3,4.9,2.6,17.4,7,23.4   c4.3,6,3.3,51.1,2.2,62.5c-1.1,11.4-5.1,46.2-5.4,47.8c-0.6,2.4-1.1,5.5-2.2,5.5c-0.6,0-1.2-0.9-2.1-3.1c2.4,9-3.3,28.5-4.1,32.6   c-0.8,4.1,4.5,13.9,4.7,23.6c0.2,9.8-0.6,60.3-14.5,106s-9.8,46.5-12.2,51.4c-1.6,3.3-6.3,13.9-14.9,21.8c0,2.7,0,5.5,0,8.4   c2.8,1.5,11.9,6.6,19.4,14.6c2.6,2.8,5.2,10,14.7,29.6c2.5,5.1,62.2,33.3,96.7,48.9c10,4.5,45.6,25.9,52,30   c37.9,24,31,81.5,32,87.3c4.2,24.3,9.3,53.7,9.1,89.2c0,13.3,1.7,41.7,3.2,64.2c-0.9,2.8-1.9,5.8-2.8,8.4L380.1,996.6L121.7,828   c0,0-0.3-3.1-0.8-8.6c2.6-16.6,5.3-32.1,7.8-43.4c8.9-39,20.9-77.6,31.5-109.1c13.4-40.1,36.8-63.2,46.6-69.5   c14.4-9.4,47.2-20.9,67.2-26.2c10.4-2.7,103.7-49.2,113-55.2c9.2-6,23.1-10.4,27.5-13.5c10-7,16.1-24.1,29.2-36.3   c5.7-5.3,32.8-11.4,32.8-11.4c-0.3-5.8-3-76-14.2-99.7c-0.7-1.4-1.2-2.6-1.8-3.9c-0.6,0.2-1,0.5-1.7,0.7c-0.7,0.2-1.5,0.2-2.3,0.2   c-12.7,0-30.9-20.4-33.2-26.6c-2.4-6.5-12.7-38.7-13.5-42.8c-0.6-2.9-2.6-19.2,3-29.9c-0.8,1-1.2,1.8-1.2,1.8   c-4.8-13.6-27.1-39.2-20-91.4c7.1-52.2,41.5-93.1,56.2-96.4c2.9-0.6,5.4-0.9,7.5-0.9c6.4,0,9.8,2.1,12.5,2.1c1.6,0,3-0.8,4.6-3.3   C487.1,41.6,536.8,25.1,559.2,25.1C559.2,25.1,559.2,25.1,559.2,25.1 M665.9,521.7C665.9,521.7,665.9,521.7,665.9,521.7   C665.9,521.7,665.9,521.7,665.9,521.7c0-0.1,0-0.1,0-0.2c0,0,0-0.3,0-0.3C665.9,521.4,665.9,521.5,665.9,521.7 M559.2,0L559.2,0   L559.2,0c-23.6,0-74.1,14-99.8,41c-1.3-0.1-2.6-0.2-4-0.2c-4.2,0-8.5,0.5-12.9,1.5c-28.5,6.3-67.8,59-75.7,117.6   c-6.7,49.3,9.3,79.9,17.8,96.3c0.2,0.4,0.4,0.8,0.6,1.2c-2.8,15.4-0.1,29.5,0.1,30.3c1.3,6.6,12.4,40.7,14.6,46.7   c3.8,10.2,21.7,32.4,42.5,40.2c2.8,11.3,5.8,31.3,7.8,61.3c-16.6,5.4-21.5,9.9-23.7,12c-8.7,8.1-14.6,17.1-19.5,24.4   c-2.4,3.6-5.7,8.6-7.2,9.8c-0.6,0.2-2.8,1.1-5.3,2.2c-6.4,2.7-14.3,6.2-21.3,10.7c-10,6.2-94.9,48.3-106.5,52.2   c-18.4,4.9-55.5,17.4-73.8,29.3c-13.8,9-41.2,36.5-56.6,82.6c-14.5,43.1-24.7,78.5-32.2,111.6c-2.4,10.7-5.1,25.5-8.2,45.1l-0.5,3   l0.3,3.1c0.5,5.7,0.9,9,0.9,9l1.3,11.9l10,6.5l258.4,168.6l9.8,6.4l11.2-3.3l508.1-151.9l12.1-3.6l4.3-11.9   c0.8-2.1,1.5-4.4,2.3-6.6l0.8-2.3l1.6-4.7l-0.3-5c-2.1-30.8-3.2-52.4-3.2-62.4c0.1-37-5-67.5-9.3-92.1c0-0.6,0-1.4,0-2.3   c0.2-18.6,0.7-75.3-43.6-103.4c-4.3-2.7-42.7-26-55.1-31.6c-43.4-19.7-76.1-35.9-87.1-42.4c-2.2-4.7-4-8.5-5.4-11.6   c-4.2-9.1-6.5-14.1-10.9-18.8c-2-2.1-4-4.1-6-5.9c2.4-4.1,4.1-7.6,5.2-9.8c3.2-6.4,3.7-11,4-14.3c0.4-3.8,1.4-12.8,10.2-41.8   c16.6-54.7,15.6-113.2,15.5-113.8c-0.2-8.7-2.4-16.1-4-21.5c-0.1-0.2-0.1-0.4-0.2-0.6c1.5-6.4,3-13.3,3.7-20   c1.4-2.7,2.5-5.8,3.4-9.5c1.3-5.6,6-50,6.2-52c0.2-2.5,5.5-59.3-5.9-78.3c-0.5-1.4-1-4.5-1.4-6.4c-0.9-4.7-1.8-9.5-4-14.1   c-0.2-0.5-0.5-1.5-0.9-2.6c-2.5-7.4-6.6-19.8-16.5-28.8l-1.8-1.7c-12.3-11.5-28.9-24.3-70.8-30.1c-3.7-0.5-10.1-2.9-16.9-5.4   C605.8,7.7,584.7,0,559.2,0L559.2,0z"/>
	<g>
		<defs>
			<path id="SVGID_1_" d="M888.2,844.7L380.1,996.6L121.7,828c0,0-42.4-392.3,88.6-634C279.4,66.4,451.2,21.3,543.4,20.2     c99-1.3,182.1,15.2,239.7,68.6C978.4,269.9,942,695.3,888.2,844.7z"/>
		</defs>
		<clipPath id="SVGID_2_">
			<use xlink:href="#SVGID_1_" overflow="visible"/>
		</clipPath>
		<g clip-path="url(#SVGID_2_)">
			<g>
				<linearGradient id="SVGID_3_" gradientUnits="userSpaceOnUse" x1="452.0981" y1="443.2744" x2="670.1718" y2="456.0045">
					<stop offset="0" style="stop-color:#989898"/>
					<stop offset="5.882353e-002" style="stop-color:#B0B0B0"/>
					<stop offset="0.4115" style="stop-color:#E3E3E3"/>
					<stop offset="0.6665" style="stop-color:#CDCDCD"/>
					<stop offset="0.8503" style="stop-color:#B0B0B0"/>
					<stop offset="1" style="stop-color:#888888"/>
				</linearGradient>
				<path fill="url(#SVGID_3_)" d="M663.9,447.9c0,0-0.7,48,0.8,62.2c2.4,23.2,9.5,56.5-45.1,63.9c-35.8,4.8-97.4,0.3-119.2-25.1      c-12.8-15-31.2-34.1-38.9-56.9c-2.4-7,15.4-29.8,15-37.3c-0.3-5.8-3-76-14.2-99.7s-13.3-36.7,0-35.9s78.1,98.7,95.9,104.4      s75.6,22.8,87.8,21.2C658.3,443.1,663.8,441.4,663.9,447.9z"/>
				<path fill="#CDCDCD" d="M467.5,344.5c0,0-1.4,5.7-8.6,7.3c-12.6,2.9-33-19.8-35.5-26.3c-2.4-6.5-12.7-38.7-13.5-42.8      s-4.8-34.7,13.9-38.7c18.8-4.1,26.8,12.6,29.3,19.2c2.4,6.5,2.4,2.5,7,13c2.6,6.1,0.8,10,7.3,12.9S474.1,338.5,467.5,344.5z"/>
				<g>
					<path fill="#CDCDCD" d="M457.2,330.9c-2,1-6.4-0.7-10.9-3.3s-9-6.2-11.2-8.9c-4-4.9-6.2-11.4-7.6-17.2       c-1.4-5.8-1.9-10.8-2.3-12.9c-0.8-4.1,1.7-11.1,7.9-11.8c9.6-1,18.3,1,19.2,6.1c1.1,6.6-1.9,11.3,1,17.9       c3.6,8.3,6.6,14.9,7.7,19.8S461.2,328.9,457.2,330.9z"/>
					<path fill="#CCCCCC" d="M433.3,278.2c3.9-0.5,7.8-0.6,11-0.1c4.3,0.8,7.2,2.6,7.5,5.6c0.8,6.2-1.9,10.8,0.8,17       c2.4,5.7,4.7,10.5,6.3,14.5c0.6,1.6,1.1,3.1,1.4,4.5c1.1,4.7,0.2,8-3.8,9.8c-2,0.9-6.2-0.7-10.4-3.1c-4.3-2.4-8.6-5.8-10.7-8.4       c-3.9-4.7-6.1-10.9-7.5-16.5c-1.3-5.4-1.8-10.2-2.1-12.1C425.1,285.6,427.5,279,433.3,278.2z"/>
					<path fill="#CACACA" d="M433.5,279.7c3.8-0.6,7.5-1,10.7-0.5c4.3,0.6,7,2.4,7.2,5.4c0.4,5.9-1.9,10.2,0.7,16.1       c2.3,5.4,4.6,10,6.2,13.9c0.7,1.5,1.1,3,1.4,4.3c1,4.5,0,7.6-3.8,9.3c-1.9,0.8-5.9-0.7-9.9-2.9c-4-2.3-8.1-5.4-10.2-7.8       c-3.8-4.4-6-10.3-7.3-15.7c-1.2-5-1.6-9.5-1.9-11.4C425.9,286.6,428.2,280.6,433.5,279.7z"/>
					<path fill="#C9C9C9" d="M433.8,281.2c3.6-0.8,7.1-1.3,10.3-0.9c4.4,0.5,6.8,2.2,6.9,5.2c0.1,5.5-1.8,9.7,0.5,15.3       c2.2,5.1,4.4,9.5,6.2,13.3c0.7,1.5,1.1,2.8,1.4,4.1c0.9,4.3-0.1,7.3-3.9,8.8c-1.8,0.7-5.6-0.6-9.4-2.7c-3.8-2.1-7.7-5-9.7-7.3       c-3.7-4.2-5.9-9.8-7.2-15c-1.1-4.7-1.5-8.8-1.7-10.7C426.8,287.7,428.8,282.2,433.8,281.2z"/>
					<path fill="#C7C7C7" d="M434,282.7c3.4-0.9,6.8-1.6,10-1.4c4.4,0.4,6.7,2,6.6,5c-0.2,5.1-1.8,9.1,0.4,14.4       c2,4.8,4.2,9.1,6.1,12.7c0.7,1.4,1.2,2.7,1.4,3.9c0.9,4.1-0.2,7-3.9,8.3c-1.8,0.7-5.3-0.6-8.8-2.5c-3.6-2-7.2-4.6-9.2-6.8       c-3.6-4-5.8-9.3-7-14.3c-1-4.3-1.3-8.2-1.6-10C427.6,288.8,429.5,283.8,434,282.7z"/>
					<path fill="#C5C5C5" d="M434.2,284.1c3.2-1,6.5-2,9.7-1.8c4.4,0.2,6.5,1.8,6.3,4.8c-0.4,4.7-1.8,8.5,0.3,13.5       c1.9,4.6,4.1,8.6,6,12.1c0.7,1.3,1.2,2.6,1.4,3.7c0.8,3.8-0.4,6.6-3.9,7.8c-1.7,0.6-5-0.5-8.3-2.3c-3.4-1.8-6.8-4.2-8.7-6.3       c-3.5-3.7-5.7-8.7-6.9-13.5c-0.9-3.9-1.2-7.5-1.4-9.3C428.4,289.9,430.2,285.3,434.2,284.1z"/>
					<path fill="#C4C4C4" d="M434.5,285.6c3.1-1.1,6.2-2.3,9.3-2.2c4.4,0.1,6.4,1.5,6,4.6c-0.6,4.3-1.8,8,0.1,12.6       c1.8,4.3,3.9,8.1,6,11.4c0.7,1.2,1.2,2.4,1.4,3.5c0.8,3.6-0.5,6.3-4,7.3c-1.7,0.5-4.7-0.5-7.8-2.1c-3.2-1.6-6.3-3.9-8.2-5.8       c-3.4-3.5-5.6-8.2-6.7-12.8c-0.9-3.6-1.1-6.9-1.2-8.5C429.2,291,430.9,286.9,434.5,285.6z"/>
					<path fill="#C2C2C2" d="M434.7,287.1c2.9-1.2,5.9-2.6,9-2.7c4.4-0.1,6.3,1.3,5.6,4.4c-0.8,3.9-1.8,7.4,0,11.7       c1.6,4,3.8,7.7,5.9,10.8c0.8,1.1,1.2,2.3,1.4,3.4c0.7,3.4-0.6,6-4,6.9c-1.6,0.4-4.4-0.5-7.3-1.9c-2.9-1.5-5.9-3.5-7.7-5.2       c-3.3-3.2-5.5-7.6-6.6-12.1c-0.8-3.2-0.9-6.2-1-7.8C430,292,431.6,288.4,434.7,287.1z"/>
					<path fill="#C1C1C1" d="M435,288.5c2.7-1.4,5.6-2.9,8.6-3.1c4.5-0.2,6.2,1,5.3,4.2c-0.9,3.5-1.7,6.9-0.1,10.9       c1.5,3.8,3.6,7.2,5.8,10.2c0.8,1.1,1.2,2.1,1.5,3.2c0.7,3.1-0.8,5.6-4.1,6.4c-1.6,0.4-4.2-0.4-6.8-1.7       c-2.7-1.3-5.4-3.1-7.2-4.7c-3.2-3-5.4-7.1-6.4-11.3c-0.7-2.8-0.8-5.5-0.8-7.1C430.8,293.1,432.2,289.9,435,288.5z"/>
					<path fill="#BFBFBF" d="M435.2,290c2.6-1.5,5.3-3.3,8.3-3.5c4.5-0.4,6.1,0.8,5,4c-1.1,3.1-1.7,6.3-0.3,10       c1.4,3.5,3.4,6.7,5.8,9.6c0.8,1,1.3,2,1.5,3c0.6,2.9-0.9,5.3-4.1,5.9c-1.5,0.3-3.9-0.4-6.2-1.5c-2.5-1.1-5-2.7-6.7-4.2       c-3.1-2.8-5.3-6.5-6.3-10.6c-0.6-2.5-0.6-4.9-0.6-6.4C431.6,294.2,432.9,291.4,435.2,290z"/>
					<path fill="#BEBEBE" d="M435.5,291.5c2.4-1.7,5-3.6,8-3.9c4.5-0.5,6.1,0.6,4.7,3.8c-1.2,2.8-1.7,5.7-0.4,9.1       c1.2,3.2,3.2,6.3,5.7,9c0.8,0.9,1.3,1.9,1.5,2.8c0.6,2.7-1,5-4.1,5.4c-1.5,0.2-3.6-0.3-5.7-1.2c-2.3-1-4.6-2.3-6.2-3.7       c-3-2.5-5.2-6-6.1-9.9c-0.5-2.1-0.5-4.2-0.4-5.6C432.4,295.3,433.6,292.8,435.5,291.5z"/>
					<path fill="#BCBCBC" d="M435.7,292.9c2.2-2,4.6-3.9,7.6-4.4c4.5-0.6,6.1,0.4,4.4,3.6c-1.3,2.4-1.7,5.2-0.5,8.2       c1.1,2.9,3.1,5.8,5.6,8.4c0.8,0.8,1.3,1.7,1.5,2.6c0.5,2.5-1.2,4.6-4.2,4.9c-1.4,0.1-3.3-0.3-5.2-1c-2.1-0.8-4.1-1.9-5.7-3.2       c-2.9-2.3-5.1-5.5-6-9.1c-0.4-1.7-0.4-3.5-0.2-4.9C433.2,296.4,434.2,294.3,435.7,292.9z"/>
					<path fill="#BABABA" d="M435.9,294.4c1.9-2.2,4.3-4.3,7.3-4.8c4.5-0.8,6.1,0.3,4.1,3.5c-1.3,2.1-1.7,4.6-0.7,7.3       c1,2.7,2.9,5.4,5.6,7.7c0.9,0.8,1.3,1.6,1.5,2.4c0.5,2.2-1.3,4.3-4.2,4.4c-1.4,0.1-3-0.3-4.7-0.8c-1.8-0.6-3.7-1.6-5.2-2.6       c-2.8-2-5-4.9-5.8-8.4c-0.3-1.4-0.3-2.9-0.1-4.2C434,297.4,434.8,295.7,435.9,294.4z"/>
					<path fill="#B9B9B9" d="M443.1,290.6c-3,0.6-5.4,2.8-7,5.2c-1.6,2.5-2.3,5.3-1.8,7.4c0.7,3.3,2.9,5.9,5.7,7.6       c2.7,1.8,6,2.7,8.8,2.7c3.9,0,5.9-3.7,2.8-6.2c-2.8-2.2-4.7-4.7-5.5-7.1s-0.6-4.7,0.8-6.5C449.3,290.8,447.7,289.7,443.1,290.6       z"/>
				</g>
				<g>
					<path fill="#CDCDCD" d="M416.1,251.7c-0.7,1.8,12.4-1.8,18.3,2.9c5.9,4.7,17.3,25.9,20.4,23.8c3.1-2-5.3-25.2-11.4-28.9       C437.4,245.8,420,241.7,416.1,251.7z"/>
					<path fill="#CFCFCF" d="M416.6,251.5c3.3-9.4,20.4-5.6,26.4-2c6,3.6,14.3,25.8,11.5,27.8c-2.8,2-13.7-18.3-19.7-22.9       C428.7,249.7,416,253.2,416.6,251.5z"/>
					<path fill="#D2D2D2" d="M417.1,251.3c2.8-8.8,19.5-5.4,25.4-1.8c5.8,3.5,14.2,24.8,11.6,26.8c-2.5,2-13-17.5-18.9-22       C428.8,249.5,416.6,252.9,417.1,251.3z"/>
					<path fill="#D4D4D4" d="M417.6,251c2.2-8.2,18.7-5.1,24.4-1.7c5.7,3.5,14.1,23.7,11.6,25.8c-2.3,1.9-12.2-16.7-18.2-21       C428.9,249.3,417.2,252.7,417.6,251z"/>
					<path fill="#D6D6D6" d="M418.1,250.8c1.7-7.5,17.8-4.9,23.4-1.5c5.6,3.4,13.9,22.7,11.7,24.8c-2,1.9-11.5-15.9-17.5-20.1       C429,249.2,417.8,252.4,418.1,250.8z"/>
					<path fill="#D8D8D8" d="M418.6,250.6c1.3-6.9,17-4.7,22.5-1.3c5.5,3.3,13.8,21.6,11.8,23.7c-1.7,1.8-10.7-15.1-16.7-19.2       C429.1,249,418.3,252.2,418.6,250.6z"/>
					<path fill="#DADADA" d="M419.1,250.4c0.8-6.2,16.1-4.4,21.5-1.2c5.4,3.2,13.7,20.6,11.9,22.7c-1.5,1.7-10-14.2-16-18.2       C429.2,248.8,418.9,251.9,419.1,250.4z"/>
					<path fill="#DDDDDD" d="M419.6,250.1c0.5-5.5,15.2-4.2,20.5-1c5.3,3.2,13.6,19.5,12,21.7c-1.2,1.7-9.2-13.4-15.3-17.3       C429.3,248.6,419.5,251.7,419.6,250.1z"/>
					<path fill="#DFDFDF" d="M420.1,249.9c1-4.7,14.4-3.9,19.5-0.8c5.2,3.1,13.4,18.4,12.1,20.6c-1,1.6-8.5-12.6-14.5-16.4       C429.4,248.4,420.4,251.4,420.1,249.9z"/>
					<path fill="#E1E1E1" d="M420.6,249.7c0.6-4,13.5-3.7,18.6-0.7c5.1,3,13.3,17.3,12.2,19.6c-0.7,1.5-7.8-11.7-13.8-15.4       C429.5,248.2,421,251.2,420.6,249.7z"/>
					<path fill="#E3E3E3" d="M421.1,249.5c0.3-3.4,12.6-3.4,17.6-0.5c5,2.9,13.1,16.2,12.2,18.6c-0.5,1.4-7-10.9-13.1-14.5       C429.5,248.1,421.6,250.9,421.1,249.5z"/>
					<path fill="#E5E5E5" d="M421.6,249.2c-0.1-2.7,11.8-3.2,16.6-0.3c4.8,2.9,12.9,15.1,12.3,17.5c-0.3,1.3-6.3-10.1-12.3-13.6       C429.6,247.9,422.2,250.7,421.6,249.2z"/>
					<path fill="#E8E8E8" d="M422.1,249c-0.7-2,10.9-3,15.6-0.2s12.7,14,12.4,16.5c-0.1,1.2-5.6-9.2-11.6-12.6       C429.7,247.7,422.7,250.5,422.1,249z"/>
					<path fill="#EAEAEA" d="M422.6,248.8c-0.8-1.4,10.1-2.7,14.7,0c4.6,2.7,12.4,12.9,12.5,15.5c0.1,1.1-4.8-8.4-10.9-11.7       C429.8,247.6,423.5,250.1,422.6,248.8z"/>
				</g>
				<g>
					<path fill="#CDCDCD" d="M427.1,322.8c-0.1-3.3,11.5,12.1,19.4,12.2c7.9,0,13.8,0.8,15.7,0c2-0.8,6.7,16.8-5,15.5       S427.5,339.6,427.1,322.8z"/>
					<path fill="#CECECE" d="M427.8,323.8c0-2.9,11.3,11.9,19.2,11.9c7.9,0,13.1,0.5,15.1-0.4s6.4,16-5,14.9       S427.8,339.1,427.8,323.8z"/>
					<path fill="#D0D0D0" d="M428.5,324.7c0.1-2.6,11.1,11.7,19,11.7c7.9,0,12.5,0.2,14.4-0.8c1.9-1,6,15.2-5,14.3       C446,349,428,338.7,428.5,324.7z"/>
					<path fill="#D1D1D1" d="M429.2,325.7c0.2-2.2,11,11.4,18.8,11.4c7.9,0,11.9-0.1,13.8-1.1c1.9-1.1,5.7,14.4-5,13.6       C446.3,348.9,428.2,338.2,429.2,325.7z"/>
					<path fill="#D2D2D2" d="M429.9,326.6c0.3-1.9,10.8,11.2,18.6,11.2c7.9,0,11.2-0.3,13.1-1.5s5.3,13.6-4.9,13       S428.4,337.7,429.9,326.6z"/>
					<path fill="#D3D3D3" d="M430.6,327.5c0.6-1.5,10.6,10.9,18.5,11c7.8,0,10.6-0.6,12.5-1.9c1.9-1.3,5,12.8-4.9,12.4       C446.7,348.6,430.4,337.4,430.6,327.5z"/>
					<path fill="#D5D5D5" d="M431.3,328.5c0.8-1.1,10.4,10.7,18.3,10.7c7.8,0,9.9-0.9,11.8-2.3c1.9-1.4,4.7,12-4.9,11.7       S430.9,337,431.3,328.5z"/>
					<path fill="#D6D6D6" d="M432,329.4c0.9-0.7,10.3,10.4,18.1,10.5c7.8,0,9.3-1.2,11.2-2.6s4.3,11.2-4.9,11.1       C447.1,348.2,431.5,336.6,432,329.4z"/>
					<path fill="#D7D7D7" d="M432.7,330.4c1.1-0.4,10.1,10.2,17.9,10.2c7.8,0,8.7-1.5,10.5-3c1.9-1.6,4,10.5-4.9,10.5       C447.3,348.1,432.1,336.1,432.7,330.4z"/>
					<path fill="#D8D8D8" d="M433.4,331.3c1.2,0,9.9,9.9,17.7,10c7.8,0,8-1.7,9.9-3.4c1.8-1.6,3.6,9.7-4.9,9.9       C447.5,347.9,432.6,335.7,433.4,331.3z"/>
					<path fill="#DADADA" d="M434.1,332.3c1.3,0.3,9.7,9.7,17.5,9.7c7.8,0,7.4-2,9.2-3.8c1.8-1.7,3.3,8.9-4.9,9.2       C447.7,347.8,433.2,335.3,434.1,332.3z"/>
					<path fill="#DBDBDB" d="M434.8,333.2c1.5,0.7,9.6,9.5,17.3,9.5c7.8,0,6.7-2.3,8.6-4.1c1.8-1.8,3,8.1-4.9,8.6       C447.9,347.6,433.8,334.9,434.8,333.2z"/>
					<path fill="#DCDCDC" d="M435.5,334.1c1.6,1.1,9.4,9.2,17.1,9.2c7.7,0,6.1-2.6,7.9-4.5s2.6,7.3-4.9,8       C448.1,347.5,434.3,334.4,435.5,334.1z"/>
					<path fill="#DDDDDD" d="M436.2,335.1c1.8,1.4,9.2,9,16.9,9s5.5-2.9,7.3-4.9c1.8-2,2.3,6.5-4.9,7.3S434.9,334,436.2,335.1z"/>
				</g>
				<g>
					<linearGradient id="SVGID_4_" gradientUnits="userSpaceOnUse" x1="464.7362" y1="308.104" x2="706.7055" y2="279.8365">
						<stop offset="0" style="stop-color:#B0B0B0"/>
						<stop offset="0.4866" style="stop-color:#DCDCDC"/>
						<stop offset="0.6665" style="stop-color:#CDCDCD"/>
						<stop offset="1" style="stop-color:#9F9F9F"/>
					</linearGradient>
					<path fill="url(#SVGID_4_)" d="M684.4,139.8c0,0,19.6,32.6,20.4,48.1s-2.4,31.8,0,40.8c2.4,9-3.3,28.5-4.1,32.6       s4.5,13.9,4.7,23.6c0.2,9.8-0.6,60.3-14.5,106c-13.9,45.7-9.8,46.5-12.2,51.4s-11.4,26.1-30.2,30.2S558,479.8,530.3,457       c-27.7-22.8-42.4-40.8-43.2-44.8c-0.8-4.1-11.4-44.8-16.3-53.8c-4.9-9-8.2-57.1-4.1-66s7.3-41.6,9.8-48.9       c2.4-7.3-13-70.9-5.7-83.2c2.9-4.8,7.5-23.3,24.2-32.3c26.2-14.2,69.2-19.1,83.6-16.6C602,115.3,655.8,118.6,684.4,139.8z"/>
					<linearGradient id="SVGID_5_" gradientUnits="userSpaceOnUse" x1="470.5037" y1="311.7035" x2="696.1647" y2="285.3412">
						<stop offset="0" style="stop-color:#B4B4B4"/>
						<stop offset="0.4866" style="stop-color:#DDDDDD"/>
						<stop offset="0.6665" style="stop-color:#CFCFCF"/>
						<stop offset="1" style="stop-color:#A5A5A5"/>
					</linearGradient>
					<path fill="url(#SVGID_5_)" d="M497.4,138c24.5-13.1,64.7-17.1,78.5-14.3c22.1,4.5,72.2,8,98.9,28.2       c0.2,0.3,18.4,30.7,19.3,45.3c0.9,14.6-2,29.9,0.4,38.4c2.4,8.5-2.8,26.8-3.5,30.7c-0.7,3.9,4.2,13.1,4.5,22.3       c0.4,10-0.5,60.7-12.5,104.4c-0.6,2.1-1.1,4-1.5,5.8c-10.3,37.6-5.7,39.5-8.9,43.9c-3.1,4.2-11.3,24.1-29,27.4       c-18.1,3.4-85,5.1-111.1-16.9c-25.7-21.7-39.6-38.7-40.5-43c-0.9-4.3-10.9-42.4-15.5-51.1c-4.7-8.9-7.9-53.9-4.4-62.7       c3.5-8.8,6.4-39.5,8.3-47c2-7.9-12.5-67.8-5.9-80.1C477.1,164.1,481.5,146.5,497.4,138z"/>
					<linearGradient id="SVGID_6_" gradientUnits="userSpaceOnUse" x1="476.2515" y1="315.3096" x2="685.6255" y2="290.85">
						<stop offset="0" style="stop-color:#B9B9B9"/>
						<stop offset="0.4866" style="stop-color:#DEDEDE"/>
						<stop offset="0.6665" style="stop-color:#D2D2D2"/>
						<stop offset="1" style="stop-color:#AAAAAA"/>
					</linearGradient>
					<path fill="url(#SVGID_6_)" d="M499.8,148.2c22.9-12,60.1-15.1,73.4-12c20.6,4.9,67.1,8.6,92,27.8c0.4,0.6,17.3,28.8,18.3,42.5       c1,13.6-1.6,27.9,0.7,36c2.3,8-2.4,25-2.9,28.8c-0.5,3.8,3.9,12.4,4.3,20.9c0.5,10.2-0.3,61.2-10.6,102.8       c-0.5,2.1-0.9,4-1.3,5.7c-8.9,35.3-3.1,38.1-7.4,42.3c-3.5,3.4-11.2,22-27.8,24.6c-17.6,2.8-79.4,2.9-104-18.3       c-23.8-20.5-36.8-36.6-37.8-41.1c-1-4.5-10.3-39.9-14.8-48.5c-4.6-8.9-7.7-50.8-4.7-59.3c3-8.6,5.4-37.5,6.9-45.2       c1.6-8.5-11.9-64.6-6-77C480.5,172.8,484.7,156.1,499.8,148.2z"/>
					<linearGradient id="SVGID_7_" gradientUnits="userSpaceOnUse" x1="481.999" y1="318.9165" x2="675.0898" y2="296.3591">
						<stop offset="0" style="stop-color:#BDBDBD"/>
						<stop offset="0.4866" style="stop-color:#DFDFDF"/>
						<stop offset="0.6665" style="stop-color:#D4D4D4"/>
						<stop offset="1" style="stop-color:#B0B0B0"/>
					</linearGradient>
					<path fill="url(#SVGID_7_)" d="M502.2,158.3c21.3-10.9,55.6-13.2,68.2-9.7c19.2,5.3,62,9.2,85.1,27.5       c0.5,0.9,16.1,26.9,17.2,39.8c1.1,12.7-1.1,26,1.1,33.5c2.2,7.6-1.9,23.2-2.3,26.9c-0.4,3.7,3.6,11.7,4.1,19.5       c0.7,10.5,0,61.7-8.7,101.2c-0.5,2.1-0.7,4-1.1,5.7c-7.5,33,0.4,38-5.9,40.7c-3.1,3.5-11,20-26.6,21.9       c-17,2.1-73.9,0.8-96.9-19.8c-21.8-19.4-33.9-34.5-35.1-39.3c-1.1-4.6-9.8-37.5-14-45.8c-4.4-8.9-7.4-47.7-5-56       c2.5-8.5,4.4-35.5,5.4-43.3c1.1-9.1-11.4-61.6-6.2-73.9C484,181.4,488,165.6,502.2,158.3z"/>
					<linearGradient id="SVGID_8_" gradientUnits="userSpaceOnUse" x1="487.7345" y1="322.515" x2="664.554" y2="301.8585">
						<stop offset="0" style="stop-color:#C2C2C2"/>
						<stop offset="0.4866" style="stop-color:#E0E0E0"/>
						<stop offset="0.6665" style="stop-color:#D6D6D6"/>
						<stop offset="1" style="stop-color:#B6B6B6"/>
					</linearGradient>
					<path fill="url(#SVGID_8_)" d="M504.6,168.5c19.6-9.8,51-11.2,63.1-7.4c17.7,5.6,56.8,9.8,78.1,27.1c0.7,1.2,15,25.1,16.1,37       c1.1,11.7-0.7,24,1.5,31.1c2.1,7.1-1.5,21.5-1.7,25c-0.3,3.5,3.3,11,3.9,18.2c0.9,10.7,0.4,62.2-6.7,99.7       c-0.4,2.1-0.6,4-0.9,5.6c-6.1,30.7,3.2,37.1-4.4,39.2c-3.3,3.1-11,17.9-25.4,19.1c-16.5,1.4-68.3-1.4-89.9-21.2       c-19.8-18.2-31.1-32.5-32.4-37.5c-1.3-4.8-9.3-35-13.2-43.1c-4.3-8.8-7.2-44.5-5.3-52.6c1.9-8.3,3.4-33.5,3.9-41.4       c0.6-9.7-11-58.5-6.4-70.9C487.4,190.1,491.2,175.2,504.6,168.5z"/>
					<linearGradient id="SVGID_9_" gradientUnits="userSpaceOnUse" x1="493.4512" y1="326.0906" x2="654.0181" y2="307.3328">
						<stop offset="0" style="stop-color:#C6C6C6"/>
						<stop offset="0.4866" style="stop-color:#E1E1E1"/>
						<stop offset="0.6665" style="stop-color:#D8D8D8"/>
						<stop offset="1" style="stop-color:#BCBCBC"/>
					</linearGradient>
					<path fill="url(#SVGID_9_)" d="M507.1,178.6c17.9-8.7,46.5-9.3,58-5.1c16.2,5.9,54.8,7.3,71.2,26.8       c1.2,1.4,13.8,23.2,15.1,34.2c1.2,10.8-0.2,22.1,1.8,28.7c2,6.6-1,19.7-1.1,23.1c-0.1,3.4,3.1,10.2,3.7,16.8       c1.1,10.9,0.9,62.8-4.8,98.1c-0.3,2.1-0.4,4-0.7,5.5c-4.8,28.4,6,36.2-2.9,37.6c-3.6,2.6-10.9,15.7-24.2,16.3       c-15.9,0.7-62.8-3.6-82.8-22.6c-17.9-17-28.3-30.4-29.7-35.6c-1.4-5-8.7-32.6-12.4-40.5c-4.1-8.8-7-41.4-5.6-49.3       c1.4-8.2,2.4-31.5,2.5-39.5c0.1-10.3-10.5-55.5-6.6-67.8C490.9,198.7,494.5,184.8,507.1,178.6z"/>
					<linearGradient id="SVGID_10_" gradientUnits="userSpaceOnUse" x1="499.1403" y1="329.6423" x2="643.4875" y2="312.7793">
						<stop offset="0" style="stop-color:#CBCBCB"/>
						<stop offset="0.4866" style="stop-color:#E2E2E2"/>
						<stop offset="0.6665" style="stop-color:#DADADA"/>
						<stop offset="1" style="stop-color:#C1C1C1"/>
					</linearGradient>
					<path fill="url(#SVGID_10_)" d="M509.5,188.8c16.3-7.7,41.9-7.4,52.9-2.8c14.8,6.2,49.4,8.3,64.3,26.4       c1.4,1.7,12.7,21.3,14,31.4c1.3,9.9,0.2,20.1,2.2,26.3c2,6.2-0.6,17.9-0.5,21.2c0,3.3,2.9,9.5,3.6,15.4       c1.3,11.2,1.4,63.3-2.9,96.5c-0.3,2.1-0.2,4-0.4,5.4c-3.4,26.1,8.9,35.2-1.4,36c-3.8,2.2-10.8,13.6-23,13.6       c-15.4,0-57.3-5.7-75.7-24c-15.9-15.8-25.5-28.3-27-33.8c-1.5-5.2-8.2-30.1-11.7-37.8c-4-8.8-6.7-38.3-5.9-45.9       c0.8-8,1.3-29.6,1-37.6c-0.4-10.9-10.1-52.4-6.7-64.7C494.3,207.4,497.7,194.4,509.5,188.8z"/>
					<linearGradient id="SVGID_11_" gradientUnits="userSpaceOnUse" x1="504.7858" y1="333.1715" x2="632.9957" y2="318.1937">
						<stop offset="0" style="stop-color:#CFCFCF"/>
						<stop offset="0.4866" style="stop-color:#E4E4E4"/>
						<stop offset="0.6665" style="stop-color:#DDDDDD"/>
						<stop offset="1" style="stop-color:#C7C7C7"/>
					</linearGradient>
					<path fill="url(#SVGID_11_)" d="M511.9,199c14.6-6.6,37.3-5.5,47.8-0.5c13.3,6.4,43.9,9.4,57.3,26.1c1.6,2,11.5,19.4,13,28.6       c1.4,8.9,0.7,18.2,2.6,23.9c1.9,5.7-0.1,16.2,0.1,19.3c0.2,3.2,2.7,8.8,3.4,14.1c1.5,11.4,2,63.9-0.9,94.9       c-0.2,2.1-0.1,4-0.2,5.3c-2.2,23.7,11.7,34.3,0.1,34.4c-4,1.7-10.8,11.4-21.8,10.8c-14.9-0.8-51.8-7.9-68.6-25.5       c-14-14.6-22.6-26.3-24.3-31.9c-1.6-5.4-7.6-27.7-10.9-35.1c-3.8-8.7-6.5-35.1-6.3-42.5c0.3-7.9,0.2-27.6-0.5-35.8       c-1-11.5-9.8-49.4-6.9-61.6C497.7,216,500.9,203.9,511.9,199z"/>
					<linearGradient id="SVGID_12_" gradientUnits="userSpaceOnUse" x1="510.3546" y1="336.669" x2="623.1273" y2="323.4947">
						<stop offset="0" style="stop-color:#D3D3D3"/>
						<stop offset="0.4866" style="stop-color:#E5E5E5"/>
						<stop offset="0.6665" style="stop-color:#DFDFDF"/>
						<stop offset="1" style="stop-color:#CDCDCD"/>
					</linearGradient>
					<path fill="url(#SVGID_12_)" d="M514.3,209.1c12.9-5.5,32.8-3.7,42.7,1.8c11.9,6.5,38.4,10.4,50.4,25.7       c1.8,2.3,10.4,17.5,11.9,25.9c1.4,8,1.1,16.2,2.9,21.5c1.8,5.2,0.3,14.4,0.6,17.4c0.3,3,2.5,8,3.2,12.7       c1.7,11.6,2.8,64.6,1,93.3c-0.1,2.2,0.1,4,0,5.3c-1,21.3,14.4,31.3,1.7,32.9c-4.4,0.5-10.7,9.1-20.5,8       c-14.5-1.6-46.2-10-61.5-26.9c-12.1-13.4-19.8-24.2-21.6-30.1c-1.7-5.6-7.1-25.2-10.1-32.5c-3.6-8.7-6.3-32-6.6-39.2       c-0.3-7.7-0.9-25.6-1.9-33.9c-1.5-12.1-9.5-46.4-7.1-58.6C501,224.6,504.2,213.5,514.3,209.1z"/>
					<linearGradient id="SVGID_13_" gradientUnits="userSpaceOnUse" x1="513.9412" y1="340.3911" x2="613.9097" y2="328.7126">
						<stop offset="0" style="stop-color:#D8D8D8"/>
						<stop offset="0.4866" style="stop-color:#E6E6E6"/>
						<stop offset="0.6665" style="stop-color:#E1E1E1"/>
						<stop offset="1" style="stop-color:#D3D3D3"/>
					</linearGradient>
					<path fill="url(#SVGID_13_)" d="M516.8,219.3c11.3-4.5,28.2-1.9,37.6,4.1c10.5,6.6,32.9,11.5,43.5,25.4       c2,2.6,9.2,15.6,10.8,23.1c1.5,7.1,1.6,14.3,3.3,19.1c1.7,4.8,0.8,12.6,1.2,15.5c0.4,2.9,2.3,7.3,3,11.3       c2,11.9,3.6,65.2,3,91.7c-0.1,2.2,0.2,3.9,0.2,5.2c0.2,18.9,17.4,30.6,3.2,31.3c-4.5,0.2-10.7,6.8-19.3,5.3       c-14-2.5-40.8-12.1-54.4-28.3c-10.2-12.1-17-22.1-18.9-28.2c-1.8-5.8-6.5-22.8-9.3-29.8c-3.5-8.7-6.1-28.9-6.9-35.8       c-0.9-7.6-2-23.6-3.4-32c-2.1-12.7-9.1-43.4-7.2-55.5C504.4,233.2,507.4,223,516.8,219.3z"/>
					<linearGradient id="SVGID_14_" gradientUnits="userSpaceOnUse" x1="517.0643" y1="344.1855" x2="606.4168" y2="333.7471">
						<stop offset="0" style="stop-color:#DCDCDC"/>
						<stop offset="0.4866" style="stop-color:#E7E7E7"/>
						<stop offset="0.6665" style="stop-color:#E3E3E3"/>
						<stop offset="1" style="stop-color:#D9D9D9"/>
					</linearGradient>
					<path fill="url(#SVGID_14_)" d="M519.2,229.4c9.6-3.5,23.7-0.1,32.5,6.4c9.1,6.7,27.4,12.5,36.6,25c2.1,2.9,8.1,13.7,9.8,20.3       c1.6,6.1,2,12.4,3.7,16.7c1.6,4.3,1.2,10.8,1.8,13.5c0.6,2.8,2.2,6.6,2.8,9.9c2.3,12.1,4.5,65.8,4.9,90.1       c0,2.2,0.4,3.9,0.5,5.1c1.2,16.6,20.3,30.1,4.7,29.7c-4.7-0.1-10.6,4.4-18.1,2.5c-13.5-3.4-35.3-14.1-47.3-29.8       c-8.3-10.8-14.2-20-16.2-26.4c-1.9-6-6-20.3-8.6-27.1c-3.3-8.6-5.9-25.8-7.2-32.5c-1.4-7.4-3.1-21.6-4.9-30.1       c-2.7-13.3-8.9-40.4-7.4-52.4C507.7,241.9,510.6,232.6,519.2,229.4z"/>
					<linearGradient id="SVGID_15_" gradientUnits="userSpaceOnUse" x1="520.2573" y1="348.5406" x2="601.4518" y2="339.0553">
						<stop offset="0" style="stop-color:#E1E1E1"/>
						<stop offset="0.4866" style="stop-color:#E8E8E8"/>
						<stop offset="0.6665" style="stop-color:#E5E5E5"/>
						<stop offset="1" style="stop-color:#DEDEDE"/>
					</linearGradient>
					<path fill="url(#SVGID_15_)" d="M521.6,239.6c7.9-2.5,19.3,1.6,27.3,8.7c7.8,6.7,21.9,13.5,29.6,24.7       c2.2,3.2,6.9,11.8,8.7,17.5c1.7,5.2,2.5,10.4,4.1,14.3c1.6,3.8,1.7,9.1,2.4,11.6c0.7,2.6,2,5.8,2.6,8.6       c2.7,12.3,5.4,66.4,6.8,88.6c0.1,2.2,0.5,3.9,0.7,5c2.2,14.2,23.1,29.6,6.2,28.1c-4.9-0.4-10.5,2-16.9-0.3       c-13-4.5-29.9-16.1-40.2-31.2c-6.5-9.5-11.4-18-13.5-24.5c-2-6.2-5.4-17.9-7.8-24.4c-3.1-8.6-5.7-22.6-7.5-29.1       c-2-7.3-4.2-19.6-6.3-28.2c-3.4-13.9-8.6-37.3-7.6-49.3C511,250.5,513.8,242.1,521.6,239.6z"/>
					<linearGradient id="SVGID_16_" gradientUnits="userSpaceOnUse" x1="523.503" y1="353.4522" x2="596.5118" y2="344.9231">
						<stop offset="0" style="stop-color:#E5E5E5"/>
						<stop offset="0.4866" style="stop-color:#E9E9E9"/>
						<stop offset="0.6665" style="stop-color:#E8E8E8"/>
						<stop offset="1" style="stop-color:#E4E4E4"/>
					</linearGradient>
					<path fill="url(#SVGID_16_)" d="M524,249.8c6.1-1.5,14.9,3.3,22.2,11c6.5,6.8,16.4,14.4,22.7,24.3c2.3,3.6,5.7,10,7.7,14.7       c1.7,4.3,2.9,8.5,4.4,11.9c1.5,3.4,2.2,7.3,3,9.7c0.9,2.5,1.9,5.1,2.4,7.2c3.2,12.5,6.5,66.9,8.8,87c0.3,2.2,0.6,3.9,0.9,4.9       c3,11.8,25.9,29.2,7.7,26.6c-5.1-0.7-10.4-0.5-15.7-3.1c-12.3-5.8-24.7-18.1-33.1-32.6c-4.7-8.1-8.5-15.9-10.8-22.7       c-2.1-6.4-4.8-15.5-7-21.8c-2.9-8.6-5.5-19.5-7.8-25.8c-2.6-7.1-5.3-17.5-7.8-26.4c-4-14.5-8.3-34.3-7.7-46.2       C514.3,259.1,517,251.5,524,249.8z"/>
					<path fill="#EAEAEA" d="M526.5,259.9c14-2.1,45.6,58.2,50.1,72.3s8.5,81.8,11.8,90.2c3.8,9.6,28.7,28.7,9.2,25       c-41.4-8-50-73.9-63.1-102.2C521.6,317,508,262.6,526.5,259.9z"/>
				</g>
			</g>
			<path fill="#58595B" d="M476.5,300.7c7.5-0.5,5.2-5.4,4.7-18.5c-0.4-11-4.4-38.6,0-47.8c4.4-9.2,5.9-7.7,7.8-28.8     c1.5-16.1,1.4-60.7,3.7-66.9c4.9-13,9.9-13.5,13.7-12.4c3.8,1.1,11.8,4.8,23.2,5.3s41.3-8.7,64.7-4.9c23.4,3.8,35.3,12.2,50,12.2     c14.7,0,22.2-4.5,31.5-3.1c12.5,1.9,20.1,27.8,20.7,39.2c0.5,11.4,5.5,47,8.2,53.5s3.5,1.3,4.3-2.4c0.4-1.6,4.3-36.4,5.4-47.8     c1.1-11.4,2.2-56.5-2.2-62.5c-4.3-6-4.7-18.5-7-23.4s-4.6-17.1-11.5-23.4c-8.3-7.6-18.3-19.8-59.2-25.5     c-17.5-2.4-42.4-18.5-75.5-18.5c-22.4,0-72.1,16.4-86.7,39.7c-5.1,8-7.8-1.7-24.5,2c-14.7,3.3-49.2,44.2-56.2,96.4     c-7.1,52.2,15.2,77.8,20,91.4c0,0,10-17.8,29.1-7.1c7.2,4,11.5,13.6,13.7,19.5c2.4,6.4,4.3,9.9,5.1,14.7     C461.3,290.9,460,301.8,476.5,300.7z"/>
			<g>
				<path fill="#58595B" d="M481.3,114c8.9,8.3,6.7,31.8,0,44.8c-6.7,13-14.3,57.9-12.7,75.3c1.6,17.4-2.4,28.2-7.1,25.8      c-2.3-1.2-15.4-11.7-27.1-29.8s-21.9-43.9-18.3-75.6c2.2-19.7,6.5-41,16.2-51.8c4.9-5.4,11.1-8.2,19.1-6.8      C459.4,97.2,469.2,102.8,481.3,114z"/>
				<path fill="#5B5C5E" d="M452.9,99.6c7.6,0.8,16.9,5.1,28.1,15.4c4.9,4.5,6.2,13.9,5.1,23.6c-0.8,6.9-2.7,13.9-5.4,19.1      c-3.2,6.4-6.7,20.2-9.2,34.5c-2.5,14.3-4,29-3.3,37.4c1.4,16.4-2.3,26.6-6.7,24.7c-0.8-0.3-2.8-1.9-5.8-4.3      c-5-4.1-12.4-11.3-19.3-21.9c-10.9-16.8-20.3-42-16.8-72.4c2.1-18.5,6.2-38.8,15.4-49.3C439.6,101.2,445.4,98.8,452.9,99.6z"/>
				<path fill="#5E5F61" d="M454.3,103.4c7.3-0.8,16,3.4,26.4,12.7c4.7,4.2,5.7,13.1,4.6,22.5c-0.8,6.5-2.7,13.1-5.2,18.2      c-3.1,6.2-6.5,19.3-8.9,32.8c-2.4,13.5-3.9,27.5-3.3,35.6c1.1,15.4-2.3,25-6.3,23.7c-0.7-0.2-2.5-1.7-5.4-3.7      c-4.5-3.2-11.4-9.3-17.8-18.9c-10.2-15.4-18.6-40.2-15.2-69.2c2-17.4,5.9-36.6,14.5-46.8C442,105.3,447.4,104.2,454.3,103.4z"/>
				<path fill="#616265" d="M455.8,107.1c6.8-1.9,15,1.6,24.7,9.9c4.4,3.8,5.3,12.2,4.1,21.3c-0.8,6.1-2.6,12.4-5,17.3      c-3,6.1-6.2,18.4-8.6,31.2c-2.3,12.8-3.9,26-3.4,33.8c0.9,14.4-2.2,23.4-5.9,22.7c-0.7-0.1-2.3-1.5-4.9-3.1      c-4.1-2.5-10.4-7.2-16.2-16c-9.4-14-17-38.4-13.7-66c1.9-16.2,5.6-34.4,13.7-44.3C444.4,109.3,449.6,108.9,455.8,107.1z"/>
				<path fill="#646668" d="M457.2,110.9c6.2-3,14.1-0.2,23,7.2c4.2,3.5,4.9,11.4,3.6,20.2c-0.9,5.8-2.6,11.7-4.9,16.4      c-2.9,5.9-6,17.5-8.2,29.6c-2.3,12.1-3.9,24.5-3.5,32.1c0.6,13.4-2.2,21.7-5.5,21.6c-0.6,0-2.3-0.8-4.5-2.4      c-4.1-0.9-9.4-5.2-14.7-13c-8.7-12.7-15.3-36.5-12.2-62.9c1.8-15.1,5.3-32.2,12.9-41.8C446.8,113.3,452,113.4,457.2,110.9z"/>
				<path fill="#67696B" d="M458.7,114.6c6.2-2.8,13.2-2,21.3,4.5c4,3.2,4.5,10.5,3.1,19.1c-0.9,5.4-2.5,11-4.7,15.5      c-2.8,5.8-5.7,16.6-7.9,27.9c-2.2,11.4-3.8,23-3.6,30.3c0.4,12.4-2.2,20.2-5.2,20.6c-0.6,0.1-2.1-0.4-4-1.8      c-3.7,0.2-8.4-3.2-13.2-10.1c-7.9-11.3-13.7-34.7-10.6-59.7c1.7-13.9,5-30,12.1-39.3C449.2,117.3,453.4,114.7,458.7,114.6z"/>
				<path fill="#6A6C6E" d="M460.1,118.4c5.9-3.6,12.3-3.8,19.6,1.8c3.7,2.9,4.1,9.7,2.6,17.9c-0.9,5-2.5,10.2-4.5,14.6      c-2.7,5.6-5.5,15.7-7.6,26.3c-2.2,10.7-3.8,21.5-3.6,28.5c0.2,11.4-2.1,19.2-4.8,19.6c-0.5,0.3-1.8-0.1-3.6-1.1      c-3.4,1.2-7.4-1.1-11.7-7.1c-7.2-10-12.1-32.8-9.1-56.5c1.6-12.7,4.7-27.7,11.2-36.8C451.6,121.3,455.4,118.7,460.1,118.4z"/>
				<path fill="#6E6F72" d="M461.6,122.1c5.5-4.5,11.5-5.6,17.9-1c3.5,2.5,3.6,8.9,2.1,16.8c-0.9,4.6-2.4,9.5-4.4,13.7      c-2.5,5.4-5.3,14.9-7.3,24.6c-2.1,9.9-3.7,20-3.7,26.7c0,10.4-2,17.6-4.4,18.5c-0.5,0.4-1.6,0.3-3.1-0.5      c-3,2.2-6.4,0.9-10.1-4.1c-6.4-8.6-10.5-31-7.5-53.3c1.5-11.6,4.4-25.5,10.4-34.3C454,125.4,457.4,122.8,461.6,122.1z"/>
				<path fill="#717275" d="M463.1,125.9c5.2-5.3,10.6-7.5,16.2-3.7c3.3,2.2,3.2,8,1.6,15.6c-0.9,4.3-2.4,8.8-4.2,12.7      c-2.4,5.3-5,14-7,23c-2.1,9.2-3.6,18.5-3.8,25c-0.2,9.4-2.2,15.8-4,17.5c-0.5,0.5-1.4,0.6-2.7,0.2c-2.7,3.2-5.4,3-8.6-1.2      c-5.7-7.3-8.9-29.2-6-50.1c1.4-10.4,4.2-23.3,9.6-31.8C456.4,129.4,459.4,126.8,463.1,125.9z"/>
				<path fill="#747578" d="M464.5,129.7c4.8-6.1,9.8-9.3,14.5-6.4c3.1,1.9,2.8,7.2,1,14.5c-1,3.9-2.3,8.1-4,11.8      c-2.3,5.1-4.8,13.1-6.7,21.4c-2,8.5-3.6,17-3.9,23.2c-0.4,8.4-2.1,14.4-3.6,16.5c-0.5,0.6-1.2,0.9-2.2,0.8      c-2.3,4.2-4.4,5-7.1,1.8c-5-6-7.2-27.3-4.5-47c1.3-9.3,3.9-21,8.8-29.3C458.9,133.4,461.4,130.9,464.5,129.7z"/>
				<path fill="#77797B" d="M466,133.4c4.5-7,9-11.2,12.8-9.2c2.9,1.6,2.5,6.3,0.5,13.3c-1,3.5-2.3,7.3-3.8,10.9      c-2.2,5-4.5,12.2-6.4,19.7c-1.9,7.8-3.5,15.5-3.9,21.4c-0.6,7.4-2,13-3.3,15.4c-0.4,0.8-1,1.3-1.8,1.4c-2,5.3-3.4,7.1-5.6,4.7      c-4.3-4.7-5.6-25.5-2.9-43.8c1.2-8.1,3.6-18.8,7.9-26.8C461.3,137.4,463.5,134.9,466,133.4z"/>
				<path fill="#7A7C7F" d="M467.4,137.2c5.4-7,8.2-13.2,11.1-11.9c2.7,1.2,2.1,5.5,0,12.2c-1,3.1-2.2,6.6-3.7,10      c-2.1,4.8-4.3,11.3-6.1,18.1c-1.9,7-3.4,14-4,19.6c-0.7,6.4-1.9,11.6-2.9,14.4c-0.3,0.9-0.7,1.6-1.3,2.1c-1.7,6.3-2.9,9.5-4,7.7      c-4.3-2.5-4-23.7-1.4-40.6c1.1-6.9,3.4-16.5,7.1-24.3C463.7,141.5,465.8,139.3,467.4,137.2z"/>
				<path fill="#7D7F82" d="M468.9,140.9c4.5-8.2,7.5-15.2,9.4-14.6c2.6,0.8,1.7,4.7-0.5,11c-1,2.8-2.1,5.9-3.5,9.1      c-1.9,4.7-4,10.4-5.8,16.4c-1.8,6.3-3.3,12.5-4.1,17.8c-0.8,5.5-1.8,10.1-2.5,13.4c-0.2,1-0.6,1.9-0.9,2.7      c-2.2,7.1-1.9,11.5-2.5,10.6c-3.7-1.1-2.5-21.8,0.2-37.4c1-5.8,3.2-14.2,6.3-21.8C466.2,145.5,467.7,143.1,468.9,140.9z"/>
				<path fill="#808285" d="M478,127.3c2.4,0,1.4,3.9-1,9.9c-2.4,6-6,14.2-8.8,23c-3.8,12.1-5.7,23.5-6.7,31.8c-1,8.3-1,13.6-1,13.6      c-3,0.4-0.9-20,1.7-34.3c1.1-6.2,4.6-17.2,8-26.6S477.1,127.3,478,127.3z"/>
			</g>
			<g>
				<path fill="#58595B" d="M702.8,130.4c9.5-4.2,10.1,5.7,11.1,23.8s-4.4,63.6-7.2,63.6s-1.8-45.4-4.9-54.9      C698.6,153.5,694.4,134.1,702.8,130.4z"/>
				<path fill="#5B5C5E" d="M703.1,131.5c9-4,9.5,5,10.6,23c1.1,17.6-4.3,62.2-7,62.1c-2.8-0.1-1.2-43.5-4.4-54.1      C699.3,152.8,695.1,135.1,703.1,131.5z"/>
				<path fill="#5E5F61" d="M703.4,132.7c8.5-3.8,8.9,4.3,10.1,22.2c1.1,17-4.2,60.8-6.9,60.6c-2.7-0.2-0.6-41.6-3.9-53.2      C700,152.1,695.8,136,703.4,132.7z"/>
				<path fill="#616265" d="M703.7,133.8c8.1-3.6,8.3,3.6,9.6,21.3c1.2,16.5-4.1,59.4-6.7,59.1c-2.6-0.3-0.1-39.6-3.4-52.4      C700.6,151.5,696.5,137,703.7,133.8z"/>
				<path fill="#646668" d="M704,134.9c7.6-3.4,7.7,2.9,9.1,20.5c1.3,15.9-3.9,58-6.5,57.6c-2.5-0.4,0.5-37.7-2.8-51.5      C701.3,150.8,697.2,138,704,134.9z"/>
				<path fill="#67696B" d="M704.3,136c7.1-3.3,7.1,2.2,8.6,19.6c1.3,15.4-3.8,56.6-6.3,56.1s1-35.7-2.3-50.7      C701.9,150.1,697.9,138.9,704.3,136z"/>
				<path fill="#6A6C6E" d="M704.6,137.1c6.6-3.1,6.5,1.5,8.1,18.8c1.4,14.8-3.7,55.2-6.1,54.6s1.6-33.8-1.8-49.9      C702.5,149.5,698.6,139.9,704.6,137.1z"/>
				<path fill="#6E6F72" d="M704.9,138.2c6.1-2.9,5.9,0.8,7.6,18c1.4,14.3-3.6,53.8-5.9,53.1c-2.3-0.7,2.1-31.9-1.3-49      C703.1,148.8,699.3,140.9,704.9,138.2z"/>
				<path fill="#717275" d="M705.2,139.3c5.6-2.7,5.3,0.1,7.1,17.1c1.5,13.7-3.5,52.4-5.7,51.6s2.6-29.9-0.7-48.2      C703.7,148.2,700,141.8,705.2,139.3z"/>
				<path fill="#747578" d="M705.5,140.4c5.1-2.5,4.7-0.6,6.6,16.3c1.5,13.2-3.4,51-5.5,50.1c-2.1-0.9,3.1-28-0.2-47.3      C704.3,147.5,700.7,142.8,705.5,140.4z"/>
				<path fill="#77797B" d="M705.8,141.6c4.6-2.3,4.1-1.2,6.1,15.4c1.5,12.6-3.3,49.6-5.3,48.6c-2-1,3.6-26,0.3-46.5      C704.9,146.9,701.4,143.8,705.8,141.6z"/>
				<path fill="#7A7C7F" d="M706.1,142.7c4.1-2.1,3.4-1.9,5.6,14.6c1.6,12.1-3.2,48.2-5.1,47.1s4.1-24.1,0.9-45.6      C705.5,146.2,702.1,144.7,706.1,142.7z"/>
				<path fill="#7D7F82" d="M706.4,143.8c3.6-1.9,2.8-2.6,5.1,13.7c1.6,11.5-3.1,46.8-5,45.6c-1.9-1.2,4.6-22.1,1.4-44.8      C706.1,145.6,702.8,145.7,706.4,143.8z"/>
				<path fill="#808285" d="M706.7,144.9c3.1-1.8,2.2-3.3,4.6,12.9c1.6,10.9-2.9,45.4-4.8,44.1s5.1-20.1,1.9-43.9      C706.7,144.9,703.5,146.7,706.7,144.9z"/>
			</g>
			<g>
				<path fill="#58595B" d="M476.9,67.3c6.1-9.8,51.8-25.9,87.6-25.4c35.9,0.5,94,13,106.5,20.1c12.5,7.1,32.8,31,32.5,36.4      c-0.3,5.4-15.4,6.7-53.9,3.6s-70,17.8-90.5,20.5c-20.6,2.7-30.1-1.3-41.7-8.9c-5.8-3.8-17.5-13-27-22.4S473.8,72.2,476.9,67.3z"/>
				<path fill="#5B5C5E" d="M567.8,44.1c34.7,0.4,89.8,12.4,102.5,19.2c8.3,4.5,19,15.1,25.5,23.4c3.8,4.9,6,9,5.6,10.8      c-0.7,3-6.2,4.6-19,4.6c-8.2,0-19.3-0.6-33.7-1.8c-2.6-0.2-5.2-0.3-7.8-0.3c-21.1,0-40.1,6.6-56.2,12.3      c-9.4,3.3-17.6,6.3-24.5,7.4c-8.3,1.2-14.7,1.3-20.2,0.7c-7.9-0.9-13.8-3.5-20.2-7.6c-5.6-3.6-15.7-12.8-23.9-21.8      c-8.2-9.1-14.9-18-11.8-22.6C490.5,58.8,533.6,43.6,567.8,44.1z"/>
				<path fill="#5E5F61" d="M571.2,46.2c33.5,0.3,85.6,11.7,98.4,18.3c8.7,4.6,19.3,14.7,25.2,22.3c3.5,4.5,5.4,8.2,4.4,9.6      c-0.7,2.7-6.3,4-18.6,3.9c-8.1-0.1-18.9-0.8-32.9-1.9c-2.6-0.2-5.1-0.3-7.6-0.3c-20.3-0.1-38.9,6-55,11.3      c-9.2,3.1-17.2,6-24,7.2c-8,1.3-14.2,1.6-19.6,1.3c-7.8-0.5-13.5-2.3-19.6-6.2c-5.4-3.4-13.9-12.6-20.8-21.3      c-7-8.8-13.2-16.8-9.9-21.2C497.9,60,538.6,45.8,571.2,46.2z"/>
				<path fill="#616265" d="M574.5,48.3c32.3,0.2,81.4,11,94.3,17.5c9.2,4.6,19.6,14.3,25,21.2c3.2,4.1,4.6,7.3,3.2,8.4      c-1,2.3-6.5,3.5-18.2,3.2c-8-0.2-18.5-0.9-32-2c-2.5-0.2-5-0.3-7.4-0.3c-19.5-0.1-37.7,5.4-53.7,10.4      c-8.9,2.8-16.8,5.7-23.4,6.9c-7.7,1.4-13.8,1.9-18.9,1.9c-7.7,0-13.3-1.2-19-4.8c-5.1-3.2-12-12.4-17.7-20.8      c-5.7-8.4-11.4-15.7-8.1-19.8C505.4,61.3,543.6,48,574.5,48.3z"/>
				<path fill="#646668" d="M577.8,50.4c31.2,0.1,77.3,10.3,90.2,16.6c9.7,4.7,19.9,13.9,24.8,20.1c2.9,3.7,3.9,6.4,1.9,7.2      c-1.2,2-6.7,2.9-17.8,2.5c-7.8-0.3-18.1-1.1-31.2-2.2c-2.4-0.2-4.8-0.3-7.3-0.3c-18.8-0.2-36.5,4.7-52.5,9.5      c-8.7,2.6-16.3,5.4-22.8,6.7c-7.4,1.5-13.3,2.1-18.3,2.4c-7.6,0.4-13-0.1-18.3-3.3c-4.9-3-10.1-12.1-14.6-20.2      c-4.4-7.9-9.6-14.5-6.2-18.4C512.9,62.5,548.5,50.2,577.8,50.4z"/>
				<path fill="#67696B" d="M581.2,52.5c30-0.1,73.1,9.6,86.2,15.7c10.1,4.7,20.3,13.5,24.5,19c2.6,3.3,3.1,5.5,0.7,6      c-1.5,1.6-6.9,2.3-17.4,1.8c-7.7-0.4-17.7-1.3-30.4-2.3c-2.4-0.2-4.7-0.3-7.1-0.3c-18-0.2-35.3,4.1-51.2,8.5      c-8.5,2.4-15.9,5.1-22.2,6.5c-7.1,1.6-12.8,2.4-17.6,3c-7.6,0.9-12.7,1-17.7-1.9c-4.7-2.8-9.9-11.1-11.6-19.7      c-4.6-6.6-7.8-13.4-4.4-17.1C520.4,63.8,553.5,52.6,581.2,52.5z"/>
				<path fill="#6A6C6E" d="M584.5,54.6c28.8-0.1,68.9,8.9,82.1,14.8c10.6,4.8,20.6,13.1,24.3,17.9c2.2,2.9,2.3,4.7-0.5,4.9      c-1.8,1.3-7.1,1.7-17.1,1.1c-7.5-0.5-17.3-1.4-29.6-2.4c-2.3-0.2-4.6-0.3-6.9-0.3c-17.2-0.3-34.1,3.5-50,7.6      c-8.3,2.1-15.5,4.7-21.7,6.3c-6.9,1.7-12.4,2.7-17,3.6c-7.5,1.4-12.5,2.1-17.1-0.5c-4.4-2.5-8.4-10.7-8.5-19.1      c-3.7-6-6-12.2-2.5-15.7C527.9,65,558.5,54.7,584.5,54.6z"/>
				<path fill="#6E6F72" d="M587.9,56.7c27.6-0.2,64.7,8.1,78,13.9c11.1,4.8,20.9,12.6,24,16.8c1.9,2.5,1.6,3.8-1.7,3.7      c-2.1,0.9-7.3,1.2-16.7,0.4c-7.4-0.6-16.9-1.6-28.8-2.5c-2.2-0.2-4.4-0.3-6.7-0.3c-16.4-0.3-32.9,2.9-48.8,6.6      c-8.1,1.9-15.1,4.4-21.1,6c-6.6,1.8-11.9,3-16.3,4.2c-7.4,1.9-12.2,3.2-16.4,0.9c-4.2-2.3-6.9-10.4-5.4-18.6      c-2.7-5.4-4.2-11.1-0.7-14.3C535.4,66.3,563.5,56.9,587.9,56.7z"/>
				<path fill="#717275" d="M591.2,58.8c26.5-0.4,60.5,7.4,74,13.1c11.5,4.9,21.2,12.2,23.8,15.7c1.6,2.1,0.8,2.2-3,2.5      c-2.4,0.2-7.5,0.6-16.3-0.2c-7.3-0.7-16.5-1.7-28-2.7c-2.1-0.2-4.3-0.3-6.5-0.3c-15.7-0.4-31.6,2.3-47.5,5.7      c-7.9,1.7-14.7,4.1-20.5,5.8c-6.3,1.9-11.5,3.3-15.7,4.7c-7.4,2.4-12,4.4-15.8,2.4c-4-2.1-5.4-10-2.3-18.1      c-1.8-4.9-2.5-9.9,1.2-12.9C543,67.5,568.5,59.1,591.2,58.8z"/>
				<path fill="#747578" d="M594.5,60.9c25.3-0.5,56.4,6.7,69.9,12.2c12,4.9,21.5,11.8,23.6,14.6c1.3,1.6,0.1,1.5-4.2,1.3      c-2.6-0.1-7.7,0-15.9-0.9c-7.1-0.8-16.1-1.9-27.1-2.8c-2.1-0.2-4.2-0.3-6.3-0.4c-14.9-0.4-30.4,1.7-46.3,4.7      c-7.7,1.5-14.3,3.8-20,5.6c-6,1.9-11,3.6-15,5.3c-7.3,3-11.7,5.5-15.2,3.8c-3.8-1.9-3.9-9.6,0.7-17.5c-0.8-4.3-0.7-8.7,3-11.5      C550.5,68.8,573.4,61.3,594.5,60.9z"/>
				<path fill="#77797B" d="M597.9,63c24.1-0.6,52.2,5.9,65.8,11.3c12.5,4.9,21.8,11.4,23.3,13.5c1,1.2-0.7,0.7-5.4,0.1      c-2.8-0.4-7.9-0.6-15.5-1.6c-7-0.9-15.7-2.1-26.3-2.9c-2-0.2-4.1-0.3-6.1-0.4c-14.1-0.5-29.2,1.1-45.1,3.8      c-7.5,1.3-13.9,3.4-19.4,5.4c-5.8,2-10.5,4-14.4,5.9c-7.2,3.5-11.5,6.6-14.5,5.2c-3.6-1.7-2.4-9.2,3.8-17      c0.2-3.7,1.1-7.6,4.9-10.1C558,70.1,578.4,63.5,597.9,63z"/>
				<path fill="#7A7C7F" d="M601.2,65.1c22.9-0.7,48,5.2,61.8,10.4c13,4.9,22.1,11,23.1,12.4c0.6,0.8-1.4,0-6.6-1.1      c-3.1-0.6-8.1-1.2-15.1-2.3c-6.9-1-15.3-2.2-25.5-3c-1.9-0.2-3.9-0.3-5.9-0.4c-13.3-0.5-28,0.6-43.8,2.9      c-7.2,1-13.5,3.1-18.8,5.1c-5.5,2.1-10,4.3-13.7,6.4c-7.1,4.1-11.2,7.8-13.9,6.6c-3.3-1.4-0.8-8.9,6.9-16.4      c1.1-3.2,2.9-6.4,6.7-8.7C565.6,71.4,583.4,65.7,601.2,65.1z"/>
				<path fill="#7D7F82" d="M604.5,67.2c21.8-0.9,43.9,4.4,57.7,9.5c13.4,5,22.4,10.6,22.8,11.3c0.3,0.4-2.2-0.8-7.8-2.3      c-3.4-0.9-8.3-1.8-14.8-3c-6.7-1.2-14.9-2.4-24.7-3.1c-1.9-0.1-3.8-0.3-5.8-0.4c-12.6-0.6-26.8,0-42.6,1.9      c-7,0.8-13.1,2.8-18.2,4.9c-5.2,2.2-9.5,4.6-13.1,7c-7,4.7-11,8.9-13.3,8c-3.1-1.2,1.6-7.5,10-15.9c2.4-2.3,4.7-5.2,8.6-7.3      C573.1,72.7,588.4,67.8,604.5,67.2z"/>
				<path fill="#808285" d="M589.9,78.4c15.8-1.5,29.6-1.6,41.3-1c11.8,0.6,21.6,2,29.4,3.6c15.7,3.2,23.4,7.1,23.4,7.1      c0.1,0-8.7-5.3-22.6-10.2c-13.9-5-33-9.7-53.6-8.7c-20.2,1-36.8,8.3-47.7,15.5s-16,14.4-13.1,15.4c1.9,0.6,5.8-4.2,12.6-9.5      C566.6,85.4,576.3,79.7,589.9,78.4z"/>
			</g>
			<linearGradient id="SVGID_17_" gradientUnits="userSpaceOnUse" x1="451.906" y1="456.199" x2="519.9067" y2="1010.0201">
				<stop offset="0" style="stop-color:#2D2C2D"/>
				<stop offset="0.2275" style="stop-color:#4F5051"/>
				<stop offset="0.3582" style="stop-color:#5E5F61"/>
				<stop offset="0.3729" style="stop-color:#5E5F61"/>
				<stop offset="0.527" style="stop-color:#4E4F51"/>
				<stop offset="0.6785" style="stop-color:#3A3B3C"/>
				<stop offset="1" style="stop-color:#231F20"/>
			</linearGradient>
			<path fill="url(#SVGID_17_)" d="M476.5,454.7c0,0-27.1,6.1-32.8,11.4c-13.2,12.2-19.3,29.4-29.2,36.3     c-4.4,3.1-18.2,7.5-27.5,13.5c-9.2,6-102.6,52.5-113,55.2c-20,5.3-52.8,16.9-67.2,26.2c-9.8,6.4-33.1,29.5-46.6,69.5     c-10.6,31.6-22.6,70.1-31.5,109.1c-8.4,36.9-18.1,118.7-21.3,138.8c-3.3,20.1,39.1,59.2,100,59.8c81,0.8,89.8,8.8,107.6,10.2     c29.4,2.2,115,41.2,376.7-0.4c133.4-21.2,140.4-68.1,144.3-69.7c4.1-1.6,25.5,0.4,38.6-8.1c22.6-14.8,18.8-37.9,18.8-37.9     s-5.6-72.6-5.5-96.6c0.1-35.5-5-64.9-9.1-89.2c-1-5.8,5.9-63.3-32-87.3c-6.5-4.1-42-25.4-52-30c-34.5-15.6-94.2-43.9-96.7-48.9     c-9.6-19.5-12.1-26.7-14.7-29.6c-8.9-9.6-20.7-15.3-20.7-15.3l1.4,18.6c0,0,11.6,22.1,14.8,27.6c8.3,14.1-28.5,47.9-51,52.7     c-32.3,6.9-81.4,12-127.3-28c-13-11.4-31.3-34.5-35.5-50.8c-2.7-10.2,3.5-14.5,7.5-21.8C475.5,464.6,476.5,454.7,476.5,454.7z"/>
			<g>
				<linearGradient id="SVGID_18_" gradientUnits="userSpaceOnUse" x1="510.6336" y1="455.8914" x2="578.4075" y2="1007.8657">
					<stop offset="0" style="stop-color:#2D2C2D"/>
					<stop offset="0.2275" style="stop-color:#4F5051"/>
					<stop offset="0.3582" style="stop-color:#5E5F61"/>
					<stop offset="0.3729" style="stop-color:#5E5F61"/>
					<stop offset="0.527" style="stop-color:#4E4F51"/>
					<stop offset="0.6785" style="stop-color:#3A3B3C"/>
					<stop offset="1" style="stop-color:#231F20"/>
				</linearGradient>
				<path fill="url(#SVGID_18_)" d="M436.2,485.7c5.6-1.2,14.6,13.5,27.3,31.2c12.7,17.7,29.1,38.3,49.4,49.1      c16.9,9,40.8,20.6,84,17.1c11-0.9,13.4,8.7,12.1,10.3c-0.6,0.8-11.8,7.9-29.3,12.6s-41.1,6.9-66.7-2.1      c-15.5-5.5-28.8-15.4-39.9-27.3c-11-11.9-19.8-25.8-26.2-39C434,511,430.3,486.9,436.2,485.7z"/>
				<linearGradient id="SVGID_19_" gradientUnits="userSpaceOnUse" x1="510.9884" y1="460.5954" x2="576.0367" y2="990.3714">
					<stop offset="0" style="stop-color:#323132"/>
					<stop offset="0.2184" style="stop-color:#505152"/>
					<stop offset="0.3582" style="stop-color:#5F6062"/>
					<stop offset="0.3729" style="stop-color:#5F6062"/>
					<stop offset="0.5384" style="stop-color:#4F5051"/>
					<stop offset="0.6785" style="stop-color:#3E3F40"/>
					<stop offset="1" style="stop-color:#292526"/>
				</linearGradient>
				<path fill="url(#SVGID_19_)" d="M438.4,489.4c4.5-1.1,11.8,9.5,22,23.7c1.5,2.1,3,4.2,4.6,6.4c11.9,16.3,27.1,35.2,45.7,45.9      c0.8,0.5,1.6,0.9,2.4,1.3c14.7,7.7,34.4,17.1,66.3,17.5c4.8,0.1,9.7-0.1,15-0.4c10.7-0.7,13.2,8.2,12,9.8      c-0.5,0.7-9.5,6.1-23.9,10.2c-1.5,0.4-3.1,0.9-4.8,1.3c-17,4.1-40,5.9-64.9-3.1c-14.8-5.2-27.5-14.8-38.1-26.1      c-9.7-10.4-17.6-22.2-23.6-33.8c-0.6-1.1-1.1-2.2-1.7-3.3C436.8,513.5,433,490.7,438.4,489.4z"/>
				<linearGradient id="SVGID_20_" gradientUnits="userSpaceOnUse" x1="511.337" y1="465.2914" x2="573.6797" y2="973.0325">
					<stop offset="0" style="stop-color:#373637"/>
					<stop offset="0.2078" style="stop-color:#515253"/>
					<stop offset="0.3582" style="stop-color:#606163"/>
					<stop offset="0.3729" style="stop-color:#606163"/>
					<stop offset="0.5519" style="stop-color:#505152"/>
					<stop offset="0.6785" style="stop-color:#424344"/>
					<stop offset="1" style="stop-color:#2E2B2C"/>
				</linearGradient>
				<path fill="url(#SVGID_20_)" d="M440.6,493c4.2-1.2,11.3,9.1,21.3,22.8c1.4,2,2.9,4,4.5,6.1c11.6,15.6,26.4,33.8,44.6,44.1      c0.8,0.4,1.5,0.9,2.3,1.3c14.6,7.6,33.9,16.5,64.1,17.2c4.6,0.1,9.5,0.1,14.5-0.2c10.4-0.5,13,7.7,11.9,9.2      c-0.5,0.6-9.3,5.6-23.4,9.3c-1.5,0.4-3.1,0.8-4.7,1.1c-16.5,3.6-38.8,4.8-63.1-4c-14-5.1-26.2-14.1-36.4-24.9      c-9.2-9.8-16.9-21.1-22.8-32.1c-0.6-1-1.1-2.1-1.6-3.1C439.6,515.9,435.7,494.4,440.6,493z"/>
				<linearGradient id="SVGID_21_" gradientUnits="userSpaceOnUse" x1="511.678" y1="469.9775" x2="571.3403" y2="955.8884">
					<stop offset="0" style="stop-color:#3C3B3D"/>
					<stop offset="0.1952" style="stop-color:#535355"/>
					<stop offset="0.3582" style="stop-color:#616265"/>
					<stop offset="0.3729" style="stop-color:#616265"/>
					<stop offset="0.5624" style="stop-color:#525354"/>
					<stop offset="0.6785" style="stop-color:#464748"/>
					<stop offset="1" style="stop-color:#343133"/>
				</linearGradient>
				<path fill="url(#SVGID_21_)" d="M442.8,496.7c3.9-1.3,10.8,8.6,20.7,21.9c1.4,1.9,2.9,3.9,4.4,5.9c11.3,15,25.8,32.4,43.4,42.3      c0.7,0.4,1.5,0.8,2.2,1.2c14.5,7.5,33.5,15.9,62,16.8c4.5,0.2,9.2,0.2,14,0c10-0.4,12.8,7.2,11.7,8.6c-0.4,0.6-9.1,5.2-23,8.4      c-1.5,0.3-3,0.7-4.6,1c-16,3.1-37.7,3.8-61.4-4.9c-13.2-4.9-24.8-13.5-34.6-23.7c-8.8-9.3-16.2-19.9-21.9-30.3      c-0.5-1-1.1-2-1.6-2.9C442.4,518.4,438.3,498.2,442.8,496.7z"/>
				<linearGradient id="SVGID_22_" gradientUnits="userSpaceOnUse" x1="512.0099" y1="474.6489" x2="569.032" y2="939.0566">
					<stop offset="0" style="stop-color:#414042"/>
					<stop offset="0.1802" style="stop-color:#545456"/>
					<stop offset="0.3582" style="stop-color:#636466"/>
					<stop offset="0.3729" style="stop-color:#636466"/>
					<stop offset="0.5808" style="stop-color:#535455"/>
					<stop offset="0.6785" style="stop-color:#4A4B4C"/>
					<stop offset="1" style="stop-color:#3A3739"/>
				</linearGradient>
				<path fill="url(#SVGID_22_)" d="M445,500.3c3.5-1.4,10.3,8.1,20.1,21c1.4,1.8,2.8,3.7,4.3,5.6c11,14.3,25.2,30.9,42.2,40.5      c0.7,0.4,1.4,0.8,2.2,1.2c14.4,7.4,33,15.3,59.8,16.5c4.4,0.2,8.9,0.3,13.5,0.2c9.7-0.2,12.6,6.8,11.6,8      c-0.4,0.5-8.8,4.7-22.5,7.4c-1.4,0.3-2.9,0.6-4.4,0.8c-15.5,2.6-36.5,2.8-59.6-5.9c-12.4-4.7-23.5-12.8-32.8-22.5      c-8.4-8.8-15.5-18.8-21-28.5c-0.5-0.9-1-1.8-1.5-2.8C445.2,520.8,441,501.9,445,500.3z"/>
				<linearGradient id="SVGID_23_" gradientUnits="userSpaceOnUse" x1="512.3306" y1="479.3047" x2="566.7536" y2="922.5446">
					<stop offset="0" style="stop-color:#464547"/>
					<stop offset="0.162" style="stop-color:#555557"/>
					<stop offset="0.3582" style="stop-color:#646567"/>
					<stop offset="0.3729" style="stop-color:#646567"/>
					<stop offset="0.6035" style="stop-color:#545556"/>
					<stop offset="0.6785" style="stop-color:#4E4F50"/>
					<stop offset="1" style="stop-color:#3F3D3F"/>
				</linearGradient>
				<path fill="url(#SVGID_23_)" d="M447.2,504c3.2-1.5,9.8,7.6,19.4,20.1c1.3,1.7,2.7,3.5,4.2,5.4c10.7,13.7,24.5,29.5,41.1,38.7      c0.7,0.4,1.4,0.8,2.1,1.1c14.3,7.3,32.5,14.7,57.6,16.2c4.3,0.3,8.6,0.4,13,0.4c9.4,0.1,12.4,6.3,11.5,7.5      c-0.4,0.4-8.6,4.2-22,6.5c-1.4,0.2-2.8,0.5-4.3,0.7c-15.1,2.1-35.3,1.8-57.8-6.8c-11.6-4.5-22.1-12.1-31.1-21.3      c-8-8.2-14.8-17.6-20.2-26.8c-0.5-0.9-1-1.7-1.5-2.6C448,523.2,443.6,505.6,447.2,504z"/>
				<linearGradient id="SVGID_24_" gradientUnits="userSpaceOnUse" x1="512.6395" y1="483.9415" x2="564.5129" y2="906.4167">
					<stop offset="0" style="stop-color:#4B4A4C"/>
					<stop offset="0.1387" style="stop-color:#565658"/>
					<stop offset="0.3582" style="stop-color:#656668"/>
					<stop offset="0.3729" style="stop-color:#656668"/>
					<stop offset="0.6326" style="stop-color:#555657"/>
					<stop offset="0.6785" style="stop-color:#525354"/>
					<stop offset="1" style="stop-color:#454345"/>
				</linearGradient>
				<path fill="url(#SVGID_24_)" d="M449.4,507.6c2.9-1.6,9.2,7.1,18.8,19.2c1.3,1.7,2.7,3.4,4.1,5.1c10.4,13,23.9,28.1,39.9,36.9      c0.7,0.4,1.3,0.7,2,1.1c14.2,7.3,32,14.2,55.4,15.9c4.2,0.3,8.3,0.6,12.5,0.6c9.1,0.2,12.2,5.8,11.3,6.9      c-0.3,0.4-8.4,3.8-21.5,5.6c-1.4,0.2-2.8,0.4-4.2,0.5c-14.6,1.6-34.2,0.8-56-7.8c-10.8-4.2-20.8-11.5-29.3-20.2      c-7.6-7.7-14.1-16.5-19.3-25c-0.5-0.8-1-1.6-1.5-2.4C450.8,525.7,446.3,509.3,449.4,507.6z"/>
				<linearGradient id="SVGID_25_" gradientUnits="userSpaceOnUse" x1="512.9315" y1="488.5507" x2="562.3297" y2="890.8661">
					<stop offset="0" style="stop-color:#4F5052"/>
					<stop offset="0.1083" style="stop-color:#57585A"/>
					<stop offset="0.3582" style="stop-color:#66676A"/>
					<stop offset="0.3729" style="stop-color:#66676A"/>
					<stop offset="0.671" style="stop-color:#555659"/>
					<stop offset="0.6785" style="stop-color:#555659"/>
					<stop offset="1" style="stop-color:#4B4A4C"/>
				</linearGradient>
				<path fill="url(#SVGID_25_)" d="M451.6,511.3c2.6-1.7,8.7,6.6,18.1,18.3c1.3,1.6,2.6,3.2,4,4.9c10.1,12.4,23.2,26.6,38.7,35.1      c0.6,0.3,1.3,0.7,1.9,1c14.2,7.2,31.6,13.6,53.3,15.6c4,0.4,8,0.7,12,0.9c8.8,0.4,12.1,5.3,11.2,6.3c-0.3,0.3-8.1,3.3-21.1,4.6      c-1.3,0.1-2.7,0.3-4.1,0.4c-14.1,1.1-33-0.2-54.2-8.7c-10.1-4-19.4-10.8-27.5-19c-7.2-7.2-13.4-15.3-18.4-23.3      c-0.5-0.8-0.9-1.5-1.4-2.2C453.6,528.1,449,513,451.6,511.3z"/>
				<linearGradient id="SVGID_26_" gradientUnits="userSpaceOnUse" x1="513.2036" y1="493.1299" x2="560.2018" y2="875.9">
					<stop offset="0" style="stop-color:#545557"/>
					<stop offset="6.688010e-002" style="stop-color:#58595B"/>
					<stop offset="0.3582" style="stop-color:#67686B"/>
					<stop offset="0.3729" style="stop-color:#67686B"/>
					<stop offset="0.6785" style="stop-color:#595A5D"/>
					<stop offset="1" style="stop-color:#515052"/>
				</linearGradient>
				<path fill="url(#SVGID_26_)" d="M453.8,515c2.3-1.9,8.2,6.2,17.5,17.4c1.2,1.5,2.5,3.1,3.9,4.7c9.9,11.7,22.6,25.2,37.6,33.2      c0.6,0.3,1.2,0.7,1.9,1c14.1,7.1,31.1,13.1,51.1,15.3c3.9,0.4,7.8,0.8,11.5,1.1c8.5,0.5,11.9,4.8,11.1,5.8      c-0.2,0.3-7.9,2.9-20.6,3.7c-1.3,0.1-2.6,0.2-4,0.2c-13.6,0.6-31.9-1.2-52.5-9.6c-9.3-3.8-18.1-10.2-25.8-17.8      c-6.7-6.7-12.7-14.2-17.6-21.5c-0.5-0.7-0.9-1.4-1.4-2.1C456.4,530.6,451.7,516.7,453.8,515z"/>
				<linearGradient id="SVGID_27_" gradientUnits="userSpaceOnUse" x1="513.4514" y1="497.6752" x2="558.1302" y2="861.5545">
					<stop offset="0" style="stop-color:#595A5C"/>
					<stop offset="6.759839e-003" style="stop-color:#595A5C"/>
					<stop offset="0.3582" style="stop-color:#68696C"/>
					<stop offset="0.3729" style="stop-color:#68696C"/>
					<stop offset="0.6785" style="stop-color:#5D5E61"/>
					<stop offset="1" style="stop-color:#565658"/>
				</linearGradient>
				<path fill="url(#SVGID_27_)" d="M456,518.6c2-2,7.7,5.7,16.8,16.5c1.2,1.4,2.5,2.9,3.8,4.4c9.6,11.1,21.9,23.8,36.4,31.4      c0.6,0.3,1.2,0.6,1.8,0.9c14,7,30.6,12.6,48.9,15c3.8,0.5,7.5,1,11,1.3c8.1,0.7,11.7,4.3,11,5.2c-0.2,0.2-7.7,2.4-20.1,2.8      c-1.2,0-2.5,0.1-3.9,0.1c-13.1,0.1-30.7-2.2-50.7-10.6c-8.5-3.6-16.7-9.5-24-16.6c-6.3-6.1-12-13.1-16.7-19.8      c-0.4-0.6-0.9-1.3-1.3-1.9C459.2,533,454.3,520.3,456,518.6z"/>
				<linearGradient id="SVGID_28_" gradientUnits="userSpaceOnUse" x1="513.6705" y1="502.1818" x2="556.1152" y2="847.8654">
					<stop offset="0" style="stop-color:#5E5F61"/>
					<stop offset="0.3582" style="stop-color:#6A6B6D"/>
					<stop offset="0.3729" style="stop-color:#6A6B6D"/>
					<stop offset="0.6785" style="stop-color:#616265"/>
					<stop offset="1" style="stop-color:#5C5C5E"/>
				</linearGradient>
				<path fill="url(#SVGID_28_)" d="M458.2,522.3c1.6-2.2,7.1,5.2,16.2,15.6c1.2,1.3,2.4,2.7,3.7,4.2c9.3,10.4,21.3,22.4,35.2,29.6      c0.6,0.3,1.1,0.6,1.7,0.9c13.9,6.8,30.2,12.1,46.8,14.7c3.7,0.6,7.2,1.1,10.5,1.5c7.8,0.9,11.5,3.8,10.8,4.6      c-0.1,0.2-7.4,2-19.6,1.8c-1.2,0-2.5,0-3.8-0.1c-12.7-0.4-29.6-3.2-48.9-11.5c-7.7-3.4-15.4-8.9-22.3-15.4      c-5.9-5.6-11.3-11.9-15.8-18c-0.4-0.6-0.9-1.2-1.3-1.7C462,535.5,456.9,523.9,458.2,522.3z"/>
				<linearGradient id="SVGID_29_" gradientUnits="userSpaceOnUse" x1="513.8582" y1="506.6478" x2="554.1532" y2="834.8246">
					<stop offset="0" style="stop-color:#636467"/>
					<stop offset="0.3582" style="stop-color:#6B6C6F"/>
					<stop offset="0.3729" style="stop-color:#6B6C6F"/>
					<stop offset="0.6785" style="stop-color:#656669"/>
					<stop offset="1" style="stop-color:#626265"/>
				</linearGradient>
				<path fill="url(#SVGID_29_)" d="M460.4,525.9c1.2-2.5,6.6,4.7,15.6,14.7c1.1,1.3,2.3,2.6,3.6,3.9c9,9.7,20.6,20.9,34.1,27.8      c0.5,0.3,1.1,0.6,1.6,0.8c13.8,6.7,29.7,11.7,44.6,14.4c3.6,0.6,6.9,1.3,10,1.7c7.5,1.1,11.3,3.4,10.7,4      c-0.1,0.1-7.2,1.5-19.2,0.9c-1.2-0.1-2.4-0.1-3.6-0.2c-12.2-0.9-28.5-4.1-47.1-12.5c-7-3.1-14-8.2-20.5-14.2      c-5.5-5.1-10.6-10.8-14.9-16.2c-0.4-0.5-0.8-1-1.2-1.6C464.8,537.9,459.5,527.5,460.4,525.9z"/>
				<linearGradient id="SVGID_30_" gradientUnits="userSpaceOnUse" x1="514.016" y1="511.0797" x2="552.2347" y2="822.3463">
					<stop offset="0" style="stop-color:#68696C"/>
					<stop offset="0.3582" style="stop-color:#6C6D70"/>
					<stop offset="0.3729" style="stop-color:#6C6D70"/>
					<stop offset="0.6785" style="stop-color:#696A6D"/>
					<stop offset="1" style="stop-color:#67686B"/>
				</linearGradient>
				<path fill="url(#SVGID_30_)" d="M462.5,529.6c0.8-2.7,6,4.3,14.9,13.8c1.1,1.2,2.3,2.4,3.5,3.7c8.7,9.1,20,19.5,32.9,26      c0.5,0.3,1,0.5,1.6,0.8c13.8,6.6,29.2,11.3,42.4,14.1c3.4,0.7,6.6,1.4,9.5,1.9c7.2,1.4,11.1,2.9,10.6,3.5c0,0.1-6.9,1.1-18.7,0      c-1.1-0.1-2.3-0.2-3.5-0.4c-11.7-1.4-27.3-5-45.4-13.4c-6.2-2.9-12.7-7.6-18.7-13c-5.1-4.5-9.9-9.6-14.1-14.5      c-0.4-0.5-0.8-0.9-1.2-1.4C467.6,540.3,462.1,531.1,462.5,529.6z"/>
				<path fill="#6D6E71" d="M464.7,533.2c0.2-2.9,5.5,3.8,14.3,12.9c8.8,9.1,21,20.7,35.1,27.6c14.1,6.9,29.8,11.5,41.7,14.5      s20.2,4.4,19.4,5c0,0-6.7,0.7-18.2-1s-27.8-5.6-47-14.9c-9.9-4.8-21.3-15-30.2-24.5C471,543.5,464.6,534.9,464.7,533.2z"/>
			</g>
			<g>
				<linearGradient id="SVGID_31_" gradientUnits="userSpaceOnUse" x1="659.5915" y1="454.1256" x2="727.506" y2="1007.2451">
					<stop offset="0" style="stop-color:#2D2C2D"/>
					<stop offset="0.2275" style="stop-color:#4F5051"/>
					<stop offset="0.3582" style="stop-color:#5E5F61"/>
					<stop offset="0.3729" style="stop-color:#5E5F61"/>
					<stop offset="0.527" style="stop-color:#4E4F51"/>
					<stop offset="0.6785" style="stop-color:#3A3B3C"/>
					<stop offset="1" style="stop-color:#231F20"/>
				</linearGradient>
				<path fill="url(#SVGID_31_)" d="M677.7,485.7c5.7,0,21.5,37.9,15.8,54.6c-5.7,16.7-29.8,39.1-42.8,34.4      c-13-4.7,29.2-19.8,31.4-44.6C683,519.8,671.5,485.7,677.7,485.7z"/>
				<linearGradient id="SVGID_32_" gradientUnits="userSpaceOnUse" x1="660.2079" y1="456.6835" x2="726.1177" y2="993.4753">
					<stop offset="0" style="stop-color:#323132"/>
					<stop offset="0.2184" style="stop-color:#505152"/>
					<stop offset="0.3582" style="stop-color:#5F6062"/>
					<stop offset="0.3729" style="stop-color:#5F6062"/>
					<stop offset="0.5384" style="stop-color:#4F5051"/>
					<stop offset="0.6785" style="stop-color:#3E3F40"/>
					<stop offset="1" style="stop-color:#292526"/>
				</linearGradient>
				<path fill="url(#SVGID_32_)" d="M678.2,487.3c5.7-0.2,20.3,36.7,14.8,52.6c-5.7,16.2-28.7,37.9-41.4,34.1      c-12.9-3.9,27.9-19.4,30.4-43.2C683.3,519.5,672.2,487.5,678.2,487.3z"/>
				<linearGradient id="SVGID_33_" gradientUnits="userSpaceOnUse" x1="660.8312" y1="459.2275" x2="724.7578" y2="979.8679">
					<stop offset="0" style="stop-color:#373637"/>
					<stop offset="0.2078" style="stop-color:#515253"/>
					<stop offset="0.3582" style="stop-color:#606163"/>
					<stop offset="0.3729" style="stop-color:#606163"/>
					<stop offset="0.5519" style="stop-color:#505152"/>
					<stop offset="0.6785" style="stop-color:#424344"/>
					<stop offset="1" style="stop-color:#2E2B2C"/>
				</linearGradient>
				<path fill="url(#SVGID_33_)" d="M678.7,488.9c5.6-0.4,19.2,35.5,13.8,50.7c-5.6,15.7-27.6,36.6-39.9,33.7      c-12.8-3.1,26.6-19.1,29.4-41.8C683.6,519.1,673,489.3,678.7,488.9z"/>
				<linearGradient id="SVGID_34_" gradientUnits="userSpaceOnUse" x1="661.4512" y1="461.7573" x2="723.4191" y2="966.4459">
					<stop offset="0" style="stop-color:#3C3B3D"/>
					<stop offset="0.1952" style="stop-color:#535355"/>
					<stop offset="0.3582" style="stop-color:#616265"/>
					<stop offset="0.3729" style="stop-color:#616265"/>
					<stop offset="0.5624" style="stop-color:#525354"/>
					<stop offset="0.6785" style="stop-color:#464748"/>
					<stop offset="1" style="stop-color:#343133"/>
				</linearGradient>
				<path fill="url(#SVGID_34_)" d="M679.2,490.4c5.6-0.6,18.1,34.3,12.8,48.7c-5.5,15.1-26.5,35.4-38.5,33.3      c-12.6-2.3,25.5-18.8,28.5-40.5C683.9,518.7,673.8,491,679.2,490.4z"/>
				<linearGradient id="SVGID_35_" gradientUnits="userSpaceOnUse" x1="662.0715" y1="464.2701" x2="722.1094" y2="953.2401">
					<stop offset="0" style="stop-color:#414042"/>
					<stop offset="0.1802" style="stop-color:#545456"/>
					<stop offset="0.3582" style="stop-color:#636466"/>
					<stop offset="0.3729" style="stop-color:#636466"/>
					<stop offset="0.5808" style="stop-color:#535455"/>
					<stop offset="0.6785" style="stop-color:#4A4B4C"/>
					<stop offset="1" style="stop-color:#3A3739"/>
				</linearGradient>
				<path fill="url(#SVGID_35_)" d="M679.7,492c5.6-0.9,16.9,33.1,11.8,46.8c-5.4,14.6-25.4,34.2-37,32.9      c-12.5-1.4,24.4-18.4,27.5-39.1C684.2,518.3,674.5,492.8,679.7,492z"/>
				<linearGradient id="SVGID_36_" gradientUnits="userSpaceOnUse" x1="662.6928" y1="466.7637" x2="720.8336" y2="940.2822">
					<stop offset="0" style="stop-color:#464547"/>
					<stop offset="0.162" style="stop-color:#555557"/>
					<stop offset="0.3582" style="stop-color:#646567"/>
					<stop offset="0.3729" style="stop-color:#646567"/>
					<stop offset="0.6035" style="stop-color:#545556"/>
					<stop offset="0.6785" style="stop-color:#4E4F50"/>
					<stop offset="1" style="stop-color:#3F3D3F"/>
				</linearGradient>
				<path fill="url(#SVGID_36_)" d="M680.2,493.6c5.5-1.1,15.8,32,10.9,44.8c-5.4,14.1-24.4,33-35.6,32.5      c-12.4-0.6,23.3-18.1,26.5-37.7C684.6,517.9,675.3,494.6,680.2,493.6z"/>
				<linearGradient id="SVGID_37_" gradientUnits="userSpaceOnUse" x1="663.3165" y1="469.2352" x2="719.5975" y2="927.6074">
					<stop offset="0" style="stop-color:#4B4A4C"/>
					<stop offset="0.1387" style="stop-color:#565658"/>
					<stop offset="0.3582" style="stop-color:#656668"/>
					<stop offset="0.3729" style="stop-color:#656668"/>
					<stop offset="0.6326" style="stop-color:#555657"/>
					<stop offset="0.6785" style="stop-color:#525354"/>
					<stop offset="1" style="stop-color:#454345"/>
				</linearGradient>
				<path fill="url(#SVGID_37_)" d="M680.8,495.1c5.5-1.4,14.7,30.8,9.9,42.9c-5.3,13.6-23.3,31.8-34.1,32.1      c-12.3,0.3,22.3-17.7,25.6-36.3C684.9,517.5,676.1,496.3,680.8,495.1z"/>
				<linearGradient id="SVGID_38_" gradientUnits="userSpaceOnUse" x1="663.9441" y1="471.6809" x2="718.408" y2="915.2535">
					<stop offset="0" style="stop-color:#4F5052"/>
					<stop offset="0.1083" style="stop-color:#57585A"/>
					<stop offset="0.3582" style="stop-color:#66676A"/>
					<stop offset="0.3729" style="stop-color:#66676A"/>
					<stop offset="0.671" style="stop-color:#555659"/>
					<stop offset="0.6785" style="stop-color:#555659"/>
					<stop offset="1" style="stop-color:#4B4A4C"/>
				</linearGradient>
				<path fill="url(#SVGID_38_)" d="M681.3,496.7c5.5-1.6,13.5,29.6,8.9,40.9c-5.3,13-22.3,30.7-32.7,31.7      c-12.3,1.2,21.3-17.4,24.6-34.9C685.3,517.1,676.8,498,681.3,496.7z"/>
				<linearGradient id="SVGID_39_" gradientUnits="userSpaceOnUse" x1="664.578" y1="474.0953" x2="717.2766" y2="903.2908">
					<stop offset="0" style="stop-color:#545557"/>
					<stop offset="6.688010e-002" style="stop-color:#58595B"/>
					<stop offset="0.3582" style="stop-color:#67686B"/>
					<stop offset="0.3729" style="stop-color:#67686B"/>
					<stop offset="0.6785" style="stop-color:#595A5D"/>
					<stop offset="1" style="stop-color:#515052"/>
				</linearGradient>
				<path fill="url(#SVGID_39_)" d="M681.8,498.3c5.5-1.9,12.4,28.4,7.9,39c-5.2,12.5-21.3,29.6-31.3,31.3      c-12.2,2.1,20.3-17,23.6-33.5C685.7,516.8,677.6,499.7,681.8,498.3z"/>
				<linearGradient id="SVGID_40_" gradientUnits="userSpaceOnUse" x1="665.2209" y1="476.4707" x2="716.2184" y2="891.8123">
					<stop offset="0" style="stop-color:#595A5C"/>
					<stop offset="6.759839e-003" style="stop-color:#595A5C"/>
					<stop offset="0.3582" style="stop-color:#68696C"/>
					<stop offset="0.3729" style="stop-color:#68696C"/>
					<stop offset="0.6785" style="stop-color:#5D5E61"/>
					<stop offset="1" style="stop-color:#565658"/>
				</linearGradient>
				<path fill="url(#SVGID_40_)" d="M682.3,499.8c5.4-2.2,11.2,27.2,7,37c-5.2,12-20.2,28.5-29.8,30.9c-12.1,3,19.3-16.6,22.6-32.1      C686.2,516.4,678.3,501.4,682.3,499.8z"/>
				<linearGradient id="SVGID_41_" gradientUnits="userSpaceOnUse" x1="665.8769" y1="478.8088" x2="715.231" y2="880.7653">
					<stop offset="0" style="stop-color:#5E5F61"/>
					<stop offset="0.3582" style="stop-color:#6A6B6D"/>
					<stop offset="0.3729" style="stop-color:#6A6B6D"/>
					<stop offset="0.6785" style="stop-color:#616265"/>
					<stop offset="1" style="stop-color:#5C5C5E"/>
				</linearGradient>
				<path fill="url(#SVGID_41_)" d="M682.8,501.4c5.4-2.5,10.1,26,6,35.1c-5.1,11.4-19.2,27.4-28.4,30.5c-12,4,18.4-16.3,21.7-30.7      C686.7,516,679.1,503.1,682.8,501.4z"/>
				<linearGradient id="SVGID_42_" gradientUnits="userSpaceOnUse" x1="666.5502" y1="481.1107" x2="714.3123" y2="870.1019">
					<stop offset="0" style="stop-color:#636467"/>
					<stop offset="0.3582" style="stop-color:#6B6C6F"/>
					<stop offset="0.3729" style="stop-color:#6B6C6F"/>
					<stop offset="0.6785" style="stop-color:#656669"/>
					<stop offset="1" style="stop-color:#626265"/>
				</linearGradient>
				<path fill="url(#SVGID_42_)" d="M683.3,503c5.3-2.9,8.9,24.8,5,33.1c-5.1,10.9-18.1,26.4-26.9,30.1c-11.8,5,17.5-15.9,20.7-29.3      C687.2,515.7,679.8,504.8,683.3,503z"/>
				<linearGradient id="SVGID_43_" gradientUnits="userSpaceOnUse" x1="667.2443" y1="483.3769" x2="713.4611" y2="859.7823">
					<stop offset="0" style="stop-color:#68696C"/>
					<stop offset="0.3582" style="stop-color:#6C6D70"/>
					<stop offset="0.3729" style="stop-color:#6C6D70"/>
					<stop offset="0.6785" style="stop-color:#696A6D"/>
					<stop offset="1" style="stop-color:#67686B"/>
				</linearGradient>
				<path fill="url(#SVGID_43_)" d="M683.8,504.5c5.2-3.2,7.7,23.6,4,31.2c-5.1,10.4-17,25.3-25.5,29.7      c-11.7,6.1,16.5-15.5,19.7-27.9C687.8,515.4,680.5,506.5,683.8,504.5z"/>
				<path fill="#6D6E71" d="M684.3,506.1c5.1-3.6,6.6,22.4,3,29.2c-5.1,9.8-15.9,24.3-24.1,29.3c-11.5,7.1,15.6-15.1,18.8-26.5      C688.4,515,681.3,508.2,684.3,506.1z"/>
			</g>
			<path fill="#231F20" d="M663.5,485.7c0,0,6.5,0.4,9.3,4.9c2.9,4.5,11.3,34.2,4.3,45.7c-16.9,27.8-40.4,31.4-40.4,31.4     s33.7-12.7,29.1-46.2c0,0-2.2-14-2-31.7"/>
			<path fill="#231F20" d="M464.9,492c5.2,20.6,35.5,50.8,35.5,50.8s-37.4-18.9-46.3-55.7c-0.8-3.2,6.3-11.7,14.7-11.7     C470.3,475.4,461.9,480,464.9,492z"/>
			<g>
				<linearGradient id="SVGID_44_" gradientUnits="userSpaceOnUse" x1="173.7657" y1="452.8651" x2="241.7494" y2="1006.5482">
					<stop offset="0" style="stop-color:#2D2C2D"/>
					<stop offset="0.2275" style="stop-color:#4F5051"/>
					<stop offset="0.3582" style="stop-color:#5E5F61"/>
					<stop offset="0.3729" style="stop-color:#5E5F61"/>
					<stop offset="0.527" style="stop-color:#4E4F51"/>
					<stop offset="0.6785" style="stop-color:#3A3B3C"/>
					<stop offset="1" style="stop-color:#231F20"/>
				</linearGradient>
				<path fill="url(#SVGID_44_)" d="M194.5,616.1c10.6-7.7,45.7-10,56.7-0.4c11,9.6,41.9,23,54.9,101.7      c6.5,39.3,12.7,88.2,15.4,129.4c2.7,41.2,2,74.7-5.4,83.3c-19.9,23.5-44.1,35.9-68.4,39.4s-48.9-2-69.7-14.2      c-41.5-24.4-67.9-75.8-47.3-136.8C170.6,701.1,162.6,639.5,194.5,616.1z"/>
				<linearGradient id="SVGID_45_" gradientUnits="userSpaceOnUse" x1="178.4477" y1="464.2206" x2="242.9376" y2="989.449">
					<stop offset="0" style="stop-color:#323132"/>
					<stop offset="0.2184" style="stop-color:#505152"/>
					<stop offset="0.3582" style="stop-color:#5F6062"/>
					<stop offset="0.3729" style="stop-color:#5F6062"/>
					<stop offset="0.5384" style="stop-color:#4F5051"/>
					<stop offset="0.6785" style="stop-color:#3E3F40"/>
					<stop offset="1" style="stop-color:#292526"/>
				</linearGradient>
				<path fill="url(#SVGID_45_)" d="M251.5,619c10.5,9.4,39.3,22.5,51.6,95.7c6.3,37,11.9,82.8,15.1,121.4      c1.2,14.7,2.4,28.5,2.7,40.6c0.6,22.4-1.2,38.9-6.3,44.2c-20.5,21.6-43,31.5-65.9,33.2c-22.7,1.7-45.5-4.2-65-16.7      c-16.5-10.6-30.5-25.6-40-43.8c-13.8-26.5-18.3-56.7-7.1-89.5c37.4-108.7,31.6-165,61.9-185.6      C208.6,611.8,241.2,609.8,251.5,619z"/>
				<linearGradient id="SVGID_46_" gradientUnits="userSpaceOnUse" x1="183.0676" y1="475.3365" x2="244.1616" y2="972.9075">
					<stop offset="0" style="stop-color:#373637"/>
					<stop offset="0.2078" style="stop-color:#515253"/>
					<stop offset="0.3582" style="stop-color:#606163"/>
					<stop offset="0.3729" style="stop-color:#606163"/>
					<stop offset="0.5519" style="stop-color:#505152"/>
					<stop offset="0.6785" style="stop-color:#424344"/>
					<stop offset="1" style="stop-color:#2E2B2C"/>
				</linearGradient>
				<path fill="url(#SVGID_46_)" d="M251.7,622.3c10,9.2,36.5,21.9,48.3,89.7c6.1,34.6,11.1,77.4,14.9,113.5      c1.6,14.9,3.3,29,3.9,41.3c1.3,23.1-0.3,39.9-5.7,45c-21,19.7-41.9,27.1-63.4,27c-21.1-0.1-42.2-6.4-60.4-19.2      c-15.4-10.8-28.6-25.7-37.8-43.4c-14.3-27.5-19.7-56.1-9.1-86.5c35-100,31.3-150.8,60.1-168.7      C212.2,615.2,242.2,613.6,251.7,622.3z"/>
				<linearGradient id="SVGID_47_" gradientUnits="userSpaceOnUse" x1="187.8019" y1="486.1356" x2="245.6186" y2="957.0151">
					<stop offset="0" style="stop-color:#3C3B3D"/>
					<stop offset="0.1952" style="stop-color:#535355"/>
					<stop offset="0.3582" style="stop-color:#616265"/>
					<stop offset="0.3729" style="stop-color:#616265"/>
					<stop offset="0.5624" style="stop-color:#525354"/>
					<stop offset="0.6785" style="stop-color:#464748"/>
					<stop offset="1" style="stop-color:#343133"/>
				</linearGradient>
				<path fill="url(#SVGID_47_)" d="M252,625.6c9.5,9,33.8,21.3,45.1,83.7c5.8,32.3,10.5,72,14.6,105.6c1.9,15.2,4.2,29.4,5.2,42      c1.9,23.7,0.6,41-5.2,45.9c-21.4,17.8-40.7,22.8-60.9,20.8c-19.3-1.9-38.8-8.6-55.7-21.7c-14.2-11.1-26.6-25.8-35.6-42.9      c-14.8-28.5-21.1-55.4-11-83.5c32.6-91.3,30.9-136.7,58.3-151.8C215.7,618.6,243.2,617.3,252,625.6z"/>
				<linearGradient id="SVGID_48_" gradientUnits="userSpaceOnUse" x1="193.0325" y1="496.5161" x2="247.7094" y2="941.8237">
					<stop offset="0" style="stop-color:#414042"/>
					<stop offset="0.1802" style="stop-color:#545456"/>
					<stop offset="0.3582" style="stop-color:#636466"/>
					<stop offset="0.3729" style="stop-color:#636466"/>
					<stop offset="0.5808" style="stop-color:#535455"/>
					<stop offset="0.6785" style="stop-color:#4A4B4C"/>
					<stop offset="1" style="stop-color:#3A3739"/>
				</linearGradient>
				<path fill="url(#SVGID_48_)" d="M252.3,628.9c9.1,8.8,31.1,20.8,41.8,77.6c5.6,29.9,9.9,66.6,14.3,97.6      c2.2,15.4,5.1,29.9,6.4,42.8c2.6,24.4,1.6,42.1-4.7,46.7c-21.6,16-39.4,18.4-58.4,14.6c-17.5-3.5-35.5-10.8-51.1-24.3      c-13.1-11.3-24.7-25.8-33.4-42.5c-15.3-29.6-22.5-54.7-13-80.5c30.2-82.5,30.5-122.5,56.4-135C219.2,622,244.2,621,252.3,628.9z      "/>
				<linearGradient id="SVGID_49_" gradientUnits="userSpaceOnUse" x1="198.2575" y1="506.4983" x2="249.9424" y2="927.4385">
					<stop offset="0" style="stop-color:#464547"/>
					<stop offset="0.162" style="stop-color:#555557"/>
					<stop offset="0.3582" style="stop-color:#646567"/>
					<stop offset="0.3729" style="stop-color:#646567"/>
					<stop offset="0.6035" style="stop-color:#545556"/>
					<stop offset="0.6785" style="stop-color:#4E4F50"/>
					<stop offset="1" style="stop-color:#3F3D3F"/>
				</linearGradient>
				<path fill="url(#SVGID_49_)" d="M252.6,632.2c8.6,8.6,28.5,20.2,38.5,71.6c5.4,27.6,9.5,61.2,14.1,89.7      c2.5,15.6,6,30.4,7.7,43.5c3.2,25,2.5,43.2-4.1,47.5c-21.9,14.2-38,14.2-55.8,8.4c-15.7-5.1-32.1-13-46.4-26.8      c-12-11.5-22.8-25.9-31.1-42.1c-15.9-30.6-23.9-54-15-77.5c27.8-73.8,30.1-108.3,54.6-118.1      C222.7,625.4,245.2,624.7,252.6,632.2z"/>
				<linearGradient id="SVGID_50_" gradientUnits="userSpaceOnUse" x1="203.4524" y1="516.0566" x2="252.2929" y2="913.8304">
					<stop offset="0" style="stop-color:#4B4A4C"/>
					<stop offset="0.1387" style="stop-color:#565658"/>
					<stop offset="0.3582" style="stop-color:#656668"/>
					<stop offset="0.3729" style="stop-color:#656668"/>
					<stop offset="0.6326" style="stop-color:#555657"/>
					<stop offset="0.6785" style="stop-color:#525354"/>
					<stop offset="1" style="stop-color:#454345"/>
				</linearGradient>
				<path fill="url(#SVGID_50_)" d="M252.9,635.5c8.1,8.4,25.8,19.6,35.2,65.6c5.2,25.2,9.1,55.8,13.8,81.8      c2.9,15.9,6.9,30.8,8.9,44.2c3.9,25.7,3.5,44.3-3.6,48.4c-22,12.5-36.5,10.1-53.3,2.2c-13.8-6.5-28.8-15.2-41.8-29.3      c-10.9-11.7-20.8-26-28.9-41.6c-16.4-31.6-25.2-53.4-17-74.5c25.3-65.1,29.6-94.1,52.8-101.3      C226.2,628.8,246.2,628.5,252.9,635.5z"/>
				<linearGradient id="SVGID_51_" gradientUnits="userSpaceOnUse" x1="208.5988" y1="525.1517" x2="254.7359" y2="900.9088">
					<stop offset="0" style="stop-color:#4F5052"/>
					<stop offset="0.1083" style="stop-color:#57585A"/>
					<stop offset="0.3582" style="stop-color:#66676A"/>
					<stop offset="0.3729" style="stop-color:#66676A"/>
					<stop offset="0.671" style="stop-color:#555659"/>
					<stop offset="0.6785" style="stop-color:#555659"/>
					<stop offset="1" style="stop-color:#4B4A4C"/>
				</linearGradient>
				<path fill="url(#SVGID_51_)" d="M253.2,638.8c7.6,8.3,23.2,19,31.9,59.6c4.9,22.9,8.8,50.4,13.5,73.9      c3.3,16.1,7.8,31.3,10.2,44.9c4.6,26.3,4.5,45.4-3.1,49.2c-22.1,10.9-35.1,6.2-50.8-3.9c-11.9-7.7-25.4-17.4-37.1-31.8      c-9.7-12-18.9-26.1-26.7-41.2c-16.9-32.6-26.6-52.7-19-71.5c22.8-56.4,28.9-80,51-84.4C229.6,632.2,247.2,632.2,253.2,638.8z"/>
				<linearGradient id="SVGID_52_" gradientUnits="userSpaceOnUse" x1="213.64" y1="533.4478" x2="257.2444" y2="888.5775">
					<stop offset="0" style="stop-color:#545557"/>
					<stop offset="6.688010e-002" style="stop-color:#58595B"/>
					<stop offset="0.3582" style="stop-color:#67686B"/>
					<stop offset="0.3729" style="stop-color:#67686B"/>
					<stop offset="0.6785" style="stop-color:#595A5D"/>
					<stop offset="1" style="stop-color:#515052"/>
				</linearGradient>
				<path fill="url(#SVGID_52_)" d="M253.5,642.1c7.1,8.1,20.6,18.5,28.7,53.5c4.7,20.5,8.5,44.9,13.3,65.9      c3.7,16.4,8.7,31.7,11.4,45.6c5.3,27,5.5,46.6-2.6,50c-22.2,9.4-33.8,2.5-48.3-10.1c-10.2-8.8-22.1-19.6-32.5-34.3      c-8.6-12.2-16.9-26.2-24.5-40.8c-17.4-33.7-28-52-21-68.4c20.3-47.7,29.1-61.4,49.1-67.5C232.8,634.3,248.1,636,253.5,642.1z"/>
				<linearGradient id="SVGID_53_" gradientUnits="userSpaceOnUse" x1="218.6898" y1="541.9601" x2="259.785" y2="876.6536">
					<stop offset="0" style="stop-color:#595A5C"/>
					<stop offset="6.759839e-003" style="stop-color:#595A5C"/>
					<stop offset="0.3582" style="stop-color:#68696C"/>
					<stop offset="0.3729" style="stop-color:#68696C"/>
					<stop offset="0.6785" style="stop-color:#5D5E61"/>
					<stop offset="1" style="stop-color:#565658"/>
				</linearGradient>
				<path fill="url(#SVGID_53_)" d="M253.8,645.4c6.5,8,18,17.9,25.4,47.5c4.5,18.2,8.4,39.5,13,58c4.2,16.6,9.6,32.2,12.7,46.3      c6,27.6,6.5,47.8-2,50.8c-22.2,8-32.6-1.1-45.8-16.3c-8.5-9.8-18.7-21.8-27.8-36.9c-7.5-12.4-15-26.2-22.3-40.3      c-17.9-34.7-29.4-51.3-23-65.4c17.7-39,27.6-47.3,47.3-50.7C236.3,637.6,249.1,639.7,253.8,645.4z"/>
				<linearGradient id="SVGID_54_" gradientUnits="userSpaceOnUse" x1="223.2415" y1="546.5347" x2="262.385" y2="865.3322">
					<stop offset="0" style="stop-color:#5E5F61"/>
					<stop offset="0.3582" style="stop-color:#6A6B6D"/>
					<stop offset="0.3729" style="stop-color:#6A6B6D"/>
					<stop offset="0.6785" style="stop-color:#616265"/>
					<stop offset="1" style="stop-color:#5C5C5E"/>
				</linearGradient>
				<path fill="url(#SVGID_54_)" d="M254.1,648.7c6,7.8,15.5,17.3,22.1,41.5c4.4,15.8,8.2,34,12.8,50.1c4.7,16.8,10.6,32.6,13.9,47      c6.7,28.2,7.5,49-1.5,51.7c-22.3,6.6-31.7-4.6-43.3-22.5c-7-10.8-15.4-24-23.2-39.4c-6.4-12.6-13-26.3-20.1-39.9      c-18.5-35.7-30.8-50.6-25-62.4c15-30.3,26.6-38.4,45.5-33.8C239.8,642,250.1,643.5,254.1,648.7z"/>
				<linearGradient id="SVGID_55_" gradientUnits="userSpaceOnUse" x1="227.5279" y1="549.337" x2="264.9851" y2="854.4015">
					<stop offset="0" style="stop-color:#636467"/>
					<stop offset="0.3582" style="stop-color:#6B6C6F"/>
					<stop offset="0.3729" style="stop-color:#6B6C6F"/>
					<stop offset="0.6785" style="stop-color:#656669"/>
					<stop offset="1" style="stop-color:#626265"/>
				</linearGradient>
				<path fill="url(#SVGID_55_)" d="M254.4,652c5.5,7.7,13,16.7,18.8,35.5c4.2,13.5,8.2,28.6,12.5,42.2c5.4,17,11.5,33.1,15.2,47.7      c7.4,28.9,8.5,50.3-1,52.5c-22.3,5.2-31.1-8.2-40.8-28.7c-5.6-11.8-12-26.2-18.5-41.9c-5.3-12.8-11.1-26.4-17.8-39.4      c-19-36.8-32.3-49.9-27-59.4c12.1-21.6,26-25.1,43.7-17C243.2,645.2,251,647.3,254.4,652z"/>
				<linearGradient id="SVGID_56_" gradientUnits="userSpaceOnUse" x1="231.3011" y1="548.3163" x2="267.6004" y2="843.9504">
					<stop offset="0" style="stop-color:#68696C"/>
					<stop offset="0.3582" style="stop-color:#6C6D70"/>
					<stop offset="0.3729" style="stop-color:#6C6D70"/>
					<stop offset="0.6785" style="stop-color:#696A6D"/>
					<stop offset="1" style="stop-color:#67686B"/>
				</linearGradient>
				<path fill="url(#SVGID_56_)" d="M254.7,655.3c4.9,7.6,10.6,16.1,15.5,29.4c4.1,11.1,8.2,23.1,12.2,34.2      c6.1,17.1,12.4,33.5,16.4,48.4c8,29.5,9.5,51.6-0.4,53.3c-22.4,4-30.6-11.8-38.2-34.9c-4.3-12.9-8.7-28.3-13.9-44.4      c-4.2-13.1-9.2-26.5-15.6-39c-19.5-37.8-33.9-49.3-29-56.4c9-13.1,25.7-12.1,41.9-0.1C246.7,648.3,251.9,651.1,254.7,655.3z"/>
				<path fill="#6D6E71" d="M207.5,631.6c6.6-6,34.3,3.7,47.4,27c8.7,15.5,17,32.7,24.2,49.7s13.3,34,17.7,49.1      c8.7,30.2,10.5,52.9,0.1,54.2c-22.6,2.7-30.2-15.5-35.7-41.1c-5.5-25.6-8.8-58.6-22.7-85.5C218.5,646.2,202.7,636,207.5,631.6z"/>
			</g>
			<g>
				<linearGradient id="SVGID_57_" gradientUnits="userSpaceOnUse" x1="395.8154" y1="453.8474" x2="463.6445" y2="1006.2712">
					<stop offset="0" style="stop-color:#2D2C2D"/>
					<stop offset="0.2275" style="stop-color:#4F5051"/>
					<stop offset="0.3582" style="stop-color:#5E5F61"/>
					<stop offset="0.3729" style="stop-color:#5E5F61"/>
					<stop offset="0.527" style="stop-color:#4E4F51"/>
					<stop offset="0.6785" style="stop-color:#3A3B3C"/>
					<stop offset="1" style="stop-color:#231F20"/>
				</linearGradient>
				<path fill="url(#SVGID_57_)" d="M369.6,715.2c-56.3,6.1-49.7,137.2-44,166.5c6.2,32,5.2,97.6,86.7,105.3      c252.7,23.8,142.8-121.5,126.6-145.7C491.2,770.2,421.9,709.6,369.6,715.2z"/>
				<linearGradient id="SVGID_58_" gradientUnits="userSpaceOnUse" x1="393.0739" y1="466.6264" x2="458.8862" y2="1002.6248">
					<stop offset="0" style="stop-color:#2F2E2F"/>
					<stop offset="0.2184" style="stop-color:#4E4E4F"/>
					<stop offset="0.3582" style="stop-color:#5D5E5F"/>
					<stop offset="0.3729" style="stop-color:#5D5E5F"/>
					<stop offset="0.5384" style="stop-color:#4C4D4E"/>
					<stop offset="0.6785" style="stop-color:#3B3C3D"/>
					<stop offset="1" style="stop-color:#262223"/>
				</linearGradient>
				<path fill="url(#SVGID_58_)" d="M370.3,719.9c48.5-5.2,114.2,57.1,157.5,125.8c15.6,24.7,117.1,160.6-116.5,138.6      c-75.4-7.1-74.5-68.4-80.4-99.7C325.3,854.2,318,725.5,370.3,719.9z"/>
				<linearGradient id="SVGID_59_" gradientUnits="userSpaceOnUse" x1="390.3213" y1="479.4029" x2="454.1179" y2="998.9841">
					<stop offset="0" style="stop-color:#323132"/>
					<stop offset="0.2078" style="stop-color:#4C4D4E"/>
					<stop offset="0.3582" style="stop-color:#5B5C5E"/>
					<stop offset="0.3729" style="stop-color:#5B5C5E"/>
					<stop offset="0.5472" style="stop-color:#4C4D4D"/>
					<stop offset="0.6785" style="stop-color:#3D3E3E"/>
					<stop offset="1" style="stop-color:#292627"/>
				</linearGradient>
				<path fill="url(#SVGID_59_)" d="M371,724.6c44.8-4.8,106.6,59.4,145.7,125.5c14.9,25.3,108,151.7-106.3,131.5      c-69.3-6.5-68.5-63.6-74.1-94.2C330.5,855.9,322.7,729.8,371,724.6z"/>
				<linearGradient id="SVGID_60_" gradientUnits="userSpaceOnUse" x1="387.5684" y1="492.1751" x2="449.3503" y2="995.3484">
					<stop offset="0" style="stop-color:#343334"/>
					<stop offset="0.1952" style="stop-color:#4B4B4C"/>
					<stop offset="0.3582" style="stop-color:#5A5B5C"/>
					<stop offset="0.3729" style="stop-color:#5A5B5C"/>
					<stop offset="0.5681" style="stop-color:#494A4B"/>
					<stop offset="0.6785" style="stop-color:#3E3F40"/>
					<stop offset="1" style="stop-color:#2C292A"/>
				</linearGradient>
				<path fill="url(#SVGID_60_)" d="M371.7,729.3c41.1-4.4,98.9,61.8,133.8,125.1c14.3,25.9,98.9,142.9-96.2,124.5      c-63.2-5.9-62.4-58.7-67.8-88.6C335.7,857.6,327.5,734,371.7,729.3z"/>
				<linearGradient id="SVGID_61_" gradientUnits="userSpaceOnUse" x1="384.8091" y1="504.9434" x2="444.5776" y2="991.7189">
					<stop offset="0" style="stop-color:#373637"/>
					<stop offset="0.1802" style="stop-color:#4A4A4B"/>
					<stop offset="0.3582" style="stop-color:#58595B"/>
					<stop offset="0.3729" style="stop-color:#58595B"/>
					<stop offset="0.5808" style="stop-color:#49494A"/>
					<stop offset="0.6785" style="stop-color:#404041"/>
					<stop offset="1" style="stop-color:#302D2E"/>
				</linearGradient>
				<path fill="url(#SVGID_61_)" d="M372.4,733.9c37.4-4,91.1,64.4,122,124.8c13.6,26.6,89.9,134-86,117.4      c-57.1-5.4-56.4-53.9-61.5-83.1C340.9,859.3,332.2,738.2,372.4,733.9z"/>
				<linearGradient id="SVGID_62_" gradientUnits="userSpaceOnUse" x1="382.041" y1="517.7072" x2="439.7976" y2="988.0967">
					<stop offset="0" style="stop-color:#393839"/>
					<stop offset="0.162" style="stop-color:#484849"/>
					<stop offset="0.3582" style="stop-color:#575859"/>
					<stop offset="0.3729" style="stop-color:#575859"/>
					<stop offset="0.6035" style="stop-color:#474848"/>
					<stop offset="0.6785" style="stop-color:#414242"/>
					<stop offset="1" style="stop-color:#333031"/>
				</linearGradient>
				<path fill="url(#SVGID_62_)" d="M373.1,738.6c33.7-3.5,83.1,67.1,110.2,124.4c12.9,27.3,80.8,125.1-75.9,110.4      c-51-4.8-50.3-49-55.2-77.5C346.2,861,336.9,742.4,373.1,738.6z"/>
				<linearGradient id="SVGID_63_" gradientUnits="userSpaceOnUse" x1="379.261" y1="530.4659" x2="435.0073" y2="984.4835">
					<stop offset="0" style="stop-color:#3B3B3B"/>
					<stop offset="0.1387" style="stop-color:#474747"/>
					<stop offset="0.3582" style="stop-color:#565657"/>
					<stop offset="0.3729" style="stop-color:#565657"/>
					<stop offset="0.6326" style="stop-color:#454646"/>
					<stop offset="0.6785" style="stop-color:#424343"/>
					<stop offset="1" style="stop-color:#363434"/>
				</linearGradient>
				<path fill="url(#SVGID_63_)" d="M373.8,743.3c30-3.1,74.9,69.8,98.4,124.1c12.2,28,71.7,116.3-65.8,103.3      c-44.8-4.2-44.2-44.2-48.9-72C351.4,862.7,341.6,746.6,373.8,743.3z"/>
				<linearGradient id="SVGID_64_" gradientUnits="userSpaceOnUse" x1="376.4649" y1="543.2184" x2="430.2032" y2="980.8816">
					<stop offset="0" style="stop-color:#3E3D3E"/>
					<stop offset="0.1083" style="stop-color:#464546"/>
					<stop offset="0.3582" style="stop-color:#545556"/>
					<stop offset="0.3729" style="stop-color:#545556"/>
					<stop offset="0.671" style="stop-color:#444445"/>
					<stop offset="0.6785" style="stop-color:#444445"/>
					<stop offset="1" style="stop-color:#393738"/>
				</linearGradient>
				<path fill="url(#SVGID_64_)" d="M374.5,748c26.3-2.7,66.5,72.7,86.6,123.7c11.3,28.8,62.7,107.4-55.6,96.3      c-38.7-3.6-38.1-39.3-42.6-66.4C356.7,864.4,346.3,750.9,374.5,748z"/>
				<linearGradient id="SVGID_65_" gradientUnits="userSpaceOnUse" x1="373.6472" y1="555.9628" x2="425.3802" y2="977.2945">
					<stop offset="0" style="stop-color:#404040"/>
					<stop offset="6.688010e-002" style="stop-color:#444444"/>
					<stop offset="0.3582" style="stop-color:#535354"/>
					<stop offset="0.3729" style="stop-color:#535354"/>
					<stop offset="0.6785" style="stop-color:#454546"/>
					<stop offset="1" style="stop-color:#3C3B3B"/>
				</linearGradient>
				<path fill="url(#SVGID_65_)" d="M375.2,752.7c22.6-2.2,58,75.7,74.8,123.4c10.5,29.6,53.6,98.5-45.5,89.2      c-32.6-3-32-34.5-36.3-60.9C362,866.1,351,755.1,375.2,752.7z"/>
				<linearGradient id="SVGID_66_" gradientUnits="userSpaceOnUse" x1="370.7999" y1="568.6958" x2="420.5316" y2="973.7283">
					<stop offset="0" style="stop-color:#424242"/>
					<stop offset="6.759839e-003" style="stop-color:#424242"/>
					<stop offset="0.3582" style="stop-color:#525252"/>
					<stop offset="0.3729" style="stop-color:#525252"/>
					<stop offset="0.6785" style="stop-color:#464747"/>
					<stop offset="1" style="stop-color:#3F3E3E"/>
				</linearGradient>
				<path fill="url(#SVGID_66_)" d="M375.9,757.3c18.9-1.8,49.2,78.7,63,123c9.4,30.5,44.5,89.7-35.3,82.2      c-26.5-2.5-25.9-29.6-30-55.3C367.3,867.8,355.8,759.3,375.9,757.3z"/>
				<linearGradient id="SVGID_67_" gradientUnits="userSpaceOnUse" x1="367.9105" y1="581.4105" x2="415.6471" y2="970.1939">
					<stop offset="0" style="stop-color:#454545"/>
					<stop offset="0.3582" style="stop-color:#505051"/>
					<stop offset="0.3729" style="stop-color:#505051"/>
					<stop offset="0.6785" style="stop-color:#484848"/>
					<stop offset="1" style="stop-color:#434242"/>
				</linearGradient>
				<path fill="url(#SVGID_67_)" d="M376.6,762c15.2-1.4,40.4,81.8,51.1,122.7c8.3,31.4,35.4,80.8-25.2,75.1      c-20.4-1.9-19.9-24.8-23.7-49.7C372.6,869.5,360.5,763.5,376.6,762z"/>
				<linearGradient id="SVGID_68_" gradientUnits="userSpaceOnUse" x1="364.9577" y1="594.0923" x2="410.7098" y2="966.7137">
					<stop offset="0" style="stop-color:#474747"/>
					<stop offset="0.3582" style="stop-color:#4F4F4F"/>
					<stop offset="0.3729" style="stop-color:#4F4F4F"/>
					<stop offset="0.6785" style="stop-color:#49494A"/>
					<stop offset="1" style="stop-color:#464545"/>
				</linearGradient>
				<path fill="url(#SVGID_68_)" d="M377.3,766.7c11.5-1,31.3,84.8,39.3,122.3c6.9,32.3,26.4,71.9-15.1,68.1      c-14.3-1.3-13.8-20-17.4-44.2C377.9,871.2,365.2,767.7,377.3,766.7z"/>
				<linearGradient id="SVGID_69_" gradientUnits="userSpaceOnUse" x1="361.9064" y1="606.7018" x2="405.6963" y2="963.3419">
					<stop offset="0" style="stop-color:#4A4A4A"/>
					<stop offset="0.3582" style="stop-color:#4D4D4E"/>
					<stop offset="0.3729" style="stop-color:#4D4D4E"/>
					<stop offset="0.6785" style="stop-color:#4B4B4B"/>
					<stop offset="1" style="stop-color:#494949"/>
				</linearGradient>
				<path fill="url(#SVGID_69_)" d="M378,771.4c7.8-0.5,22.1,87.9,27.5,122c5.3,33.3,17.3,63.1-4.9,61c-8.1-0.7-7.6-15.1-11.1-38.6      C383.2,872.9,369.9,772,378,771.4z"/>
				<path fill="#4C4C4C" d="M378.7,776.1c4.1-0.1,12.7,90.8,15.7,121.6c3.3,34.2,8.2,54.2,5.2,54c-2-0.2-1.5-10.3-4.8-33.1      C388.5,874.6,374.6,776.2,378.7,776.1z"/>
			</g>
			<g>
				<linearGradient id="SVGID_70_" gradientUnits="userSpaceOnUse" x1="779.746" y1="453.8293" x2="847.5005" y2="1005.6455">
					<stop offset="0" style="stop-color:#2D2C2D"/>
					<stop offset="0.2275" style="stop-color:#4F5051"/>
					<stop offset="0.3582" style="stop-color:#5E5F61"/>
					<stop offset="0.3729" style="stop-color:#5E5F61"/>
					<stop offset="0.527" style="stop-color:#4E4F51"/>
					<stop offset="0.6785" style="stop-color:#3A3B3C"/>
					<stop offset="1" style="stop-color:#231F20"/>
				</linearGradient>
				<path fill="url(#SVGID_70_)" d="M852.6,725.7c6.7,1-2.7,83.4-6,104.5c-3.3,21.1-10.7,90.7-36.9,102.1      c-26.2,11.4-8.8-70.2-3.3-91.9C811.8,818.6,834.1,723,852.6,725.7z"/>
				<linearGradient id="SVGID_71_" gradientUnits="userSpaceOnUse" x1="792.9384" y1="488.2558" x2="842.025" y2="994.477">
					<stop offset="0" style="stop-color:#313031"/>
					<stop offset="0.2074" style="stop-color:#4E4D4F"/>
					<stop offset="0.3582" style="stop-color:#5E5E60"/>
					<stop offset="0.3729" style="stop-color:#5E5E60"/>
					<stop offset="0.5344" style="stop-color:#4E4E50"/>
					<stop offset="0.6785" style="stop-color:#3B3C3D"/>
					<stop offset="1" style="stop-color:#252223"/>
				</linearGradient>
				<path fill="url(#SVGID_71_)" d="M851.5,731.3c6.4,0.9-2.8,79.4-6,99.7c-3.2,20.3-10.6,86.9-34.9,97.3      c-24.3,10.4-7.8-66.2-2.5-87.5C813.6,818.3,834.3,728.8,851.5,731.3z"/>
				<linearGradient id="SVGID_72_" gradientUnits="userSpaceOnUse" x1="804.3185" y1="521.921" x2="837.2086" y2="983.3671">
					<stop offset="0" style="stop-color:#363536"/>
					<stop offset="0.1808" style="stop-color:#4C4C4D"/>
					<stop offset="0.3582" style="stop-color:#5D5E60"/>
					<stop offset="0.3729" style="stop-color:#5D5E60"/>
					<stop offset="0.5427" style="stop-color:#4D4E4F"/>
					<stop offset="0.6785" style="stop-color:#3D3E3F"/>
					<stop offset="1" style="stop-color:#282425"/>
				</linearGradient>
				<path fill="url(#SVGID_72_)" d="M850.4,736.8c6.2,0.9-2.9,75.5-6.1,95s-10.4,83.2-32.9,92.6c-22.5,9.4-6.7-62.2-1.7-83.1      C815.5,818,834.5,734.6,850.4,736.8z"/>
				<linearGradient id="SVGID_73_" gradientUnits="userSpaceOnUse" x1="813.9531" y1="554.6421" x2="833.0348" y2="972.3791">
					<stop offset="0" style="stop-color:#3A393A"/>
					<stop offset="0.1447" style="stop-color:#4A494A"/>
					<stop offset="0.3582" style="stop-color:#5D5D5F"/>
					<stop offset="0.3729" style="stop-color:#5D5D5F"/>
					<stop offset="0.5519" style="stop-color:#4C4D4E"/>
					<stop offset="0.6785" style="stop-color:#3E3F40"/>
					<stop offset="1" style="stop-color:#2A2728"/>
				</linearGradient>
				<path fill="url(#SVGID_73_)" d="M849.3,742.4c5.9,0.8-3,71.6-6.1,90.3c-3.1,18.7-10.3,79.4-30.9,87.9      c-20.7,8.4-5.7-58.3-0.8-78.7C817.3,817.6,834.8,740.4,849.3,742.4z"/>
				<linearGradient id="SVGID_74_" gradientUnits="userSpaceOnUse" x1="821.9366" y1="586.2398" x2="829.4964" y2="961.5811">
					<stop offset="0" style="stop-color:#3E3E3E"/>
					<stop offset="9.260152e-002" style="stop-color:#474747"/>
					<stop offset="0.3582" style="stop-color:#5C5D5E"/>
					<stop offset="0.3729" style="stop-color:#5C5D5E"/>
					<stop offset="0.5624" style="stop-color:#4C4C4D"/>
					<stop offset="0.6785" style="stop-color:#404041"/>
					<stop offset="1" style="stop-color:#2C292A"/>
				</linearGradient>
				<path fill="url(#SVGID_74_)" d="M848.2,747.9c5.7,0.7-3.1,67.6-6.2,85.6c-3.1,17.9-10.1,75.7-28.8,83.1      c-18.8,7.4-4.7-54.3,0-74.3C819.1,817.3,835,746.2,848.2,747.9z"/>
				<linearGradient id="SVGID_75_" gradientUnits="userSpaceOnUse" x1="828.3654" y1="616.563" x2="826.5693" y2="951.0187">
					<stop offset="0" style="stop-color:#434243"/>
					<stop offset="1.444476e-002" style="stop-color:#444344"/>
					<stop offset="0.3582" style="stop-color:#5C5C5E"/>
					<stop offset="0.3729" style="stop-color:#5C5C5E"/>
					<stop offset="0.5742" style="stop-color:#4B4C4D"/>
					<stop offset="0.6785" style="stop-color:#414243"/>
					<stop offset="1" style="stop-color:#2F2C2D"/>
				</linearGradient>
				<path fill="url(#SVGID_75_)" d="M847,753.4c5.4,0.7-3.2,63.7-6.2,80.9c-3.1,17.2-10,72-26.8,78.4c-17,6.4-3.7-50.3,0.9-69.9      C820.9,817,835.2,751.9,847,753.4z"/>
				<linearGradient id="SVGID_76_" gradientUnits="userSpaceOnUse" x1="833.356" y1="645.4565" x2="824.2346" y2="940.7542">
					<stop offset="0" style="stop-color:#474647"/>
					<stop offset="0.3582" style="stop-color:#5B5C5D"/>
					<stop offset="0.3729" style="stop-color:#5B5B5D"/>
					<stop offset="0.5878" style="stop-color:#4B4B4C"/>
					<stop offset="0.6785" style="stop-color:#434344"/>
					<stop offset="1" style="stop-color:#312E30"/>
				</linearGradient>
				<path fill="url(#SVGID_76_)" d="M845.9,759c5.2,0.6-3.2,59.8-6.3,76.1s-9.8,68.3-24.8,73.7c-15.1,5.5-2.6-46.4,1.7-65.5      C822.7,816.6,835.4,757.7,845.9,759z"/>
				<linearGradient id="SVGID_77_" gradientUnits="userSpaceOnUse" x1="837.0329" y1="672.7834" x2="822.4661" y2="930.842">
					<stop offset="0" style="stop-color:#4B4B4B"/>
					<stop offset="0.3582" style="stop-color:#5B5B5C"/>
					<stop offset="0.3729" style="stop-color:#5B5B5C"/>
					<stop offset="0.6035" style="stop-color:#4A4A4B"/>
					<stop offset="0.6785" style="stop-color:#444445"/>
					<stop offset="1" style="stop-color:#333132"/>
				</linearGradient>
				<path fill="url(#SVGID_77_)" d="M844.8,764.5c4.9,0.6-3.3,55.8-6.3,71.4c-3,15.6-9.7,64.5-22.8,68.9      c-13.3,4.5-1.6-42.4,2.6-61.1C824.5,816.3,835.6,763.5,844.8,764.5z"/>
				<linearGradient id="SVGID_78_" gradientUnits="userSpaceOnUse" x1="839.5302" y1="698.4203" x2="821.2335" y2="921.3339">
					<stop offset="0" style="stop-color:#4F4F4F"/>
					<stop offset="0.3582" style="stop-color:#5A5B5B"/>
					<stop offset="0.3729" style="stop-color:#5A5A5B"/>
					<stop offset="0.6221" style="stop-color:#4A494A"/>
					<stop offset="0.6785" style="stop-color:#464546"/>
					<stop offset="1" style="stop-color:#353335"/>
				</linearGradient>
				<path fill="url(#SVGID_78_)" d="M843.7,770.1c4.7,0.5-3.4,51.9-6.3,66.7c-2.9,14.8-9.5,60.8-20.8,64.2      c-11.4,3.5-0.6-38.4,3.4-56.7C826.3,816,835.8,769.2,843.7,770.1z"/>
				<linearGradient id="SVGID_79_" gradientUnits="userSpaceOnUse" x1="840.9883" y1="722.2585" x2="820.5002" y2="912.2797">
					<stop offset="0" style="stop-color:#545354"/>
					<stop offset="0.3582" style="stop-color:#5A5A5B"/>
					<stop offset="0.3729" style="stop-color:#5A595B"/>
					<stop offset="0.6442" style="stop-color:#49494A"/>
					<stop offset="0.6785" style="stop-color:#474748"/>
					<stop offset="1" style="stop-color:#383638"/>
				</linearGradient>
				<path fill="url(#SVGID_79_)" d="M842.6,775.6c4.4,0.4-3.5,48-6.4,62c-2.9,14-9.4,57-18.8,59.5c-9.6,2.5,0.4-34.5,4.3-52.3      C828,815.6,836.1,775,842.6,775.6z"/>
				<linearGradient id="SVGID_80_" gradientUnits="userSpaceOnUse" x1="841.5511" y1="744.2047" x2="820.2227" y2="903.727">
					<stop offset="0" style="stop-color:#585858"/>
					<stop offset="0.3582" style="stop-color:#595A5A"/>
					<stop offset="0.3729" style="stop-color:#59595A"/>
					<stop offset="0.671" style="stop-color:#494849"/>
					<stop offset="0.6785" style="stop-color:#494849"/>
					<stop offset="1" style="stop-color:#3A383A"/>
				</linearGradient>
				<path fill="url(#SVGID_80_)" d="M841.5,781.1c4.2,0.4-3.6,44-6.4,57.3c-2.8,13.2-9.2,53.3-16.8,54.8c-7.8,1.5,1.4-30.5,5.1-47.9      C829.8,815.3,836.3,780.7,841.5,781.1z"/>
				<linearGradient id="SVGID_81_" gradientUnits="userSpaceOnUse" x1="841.3566" y1="764.1783" x2="820.3411" y2="895.722">
					<stop offset="0" style="stop-color:#5C5C5C"/>
					<stop offset="0.3582" style="stop-color:#595959"/>
					<stop offset="0.3729" style="stop-color:#595859"/>
					<stop offset="0.6785" style="stop-color:#4A494A"/>
					<stop offset="1" style="stop-color:#3C3B3D"/>
				</linearGradient>
				<path fill="url(#SVGID_81_)" d="M840.4,786.7c4,0.3-3.7,40.1-6.5,52.5s-9.1,49.6-14.8,50c-5.9,0.5,2.3-26.5,6-43.5      C831.5,814.9,836.5,786.4,840.4,786.7z"/>
				<linearGradient id="SVGID_82_" gradientUnits="userSpaceOnUse" x1="840.5515" y1="782.1165" x2="820.7945" y2="888.3177">
					<stop offset="0" style="stop-color:#616161"/>
					<stop offset="0.3582" style="stop-color:#585959"/>
					<stop offset="0.3729" style="stop-color:#585859"/>
					<stop offset="0.6785" style="stop-color:#4C4B4C"/>
					<stop offset="1" style="stop-color:#3F3D3F"/>
				</linearGradient>
				<path fill="url(#SVGID_82_)" d="M839.3,792.2c3.7,0.2-3.8,36.2-6.5,47.8c-2.8,11.7-9,45.8-12.8,45.3c-4.1-0.6,3.4-22.6,6.8-39      C833.3,814.6,836.8,792.1,839.3,792.2z"/>
				<linearGradient id="SVGID_83_" gradientUnits="userSpaceOnUse" x1="839.2449" y1="797.9716" x2="821.4774" y2="881.5613">
					<stop offset="0" style="stop-color:#656565"/>
					<stop offset="1" style="stop-color:#414042"/>
				</linearGradient>
				<path fill="url(#SVGID_83_)" d="M838.2,797.8c3.5,0-3.9,32.2-6.6,43.1c-2.7,10.9-8.8,42-10.8,40.6c-2.3-1.6,4.4-18.6,7.7-34.6      C835.1,814.3,837,797.8,838.2,797.8z"/>
			</g>
		</g>
	</g>
</g>
</svg>